<?xml version="1.0" standalone="no"?>
<!DOCTYPE svg PUBLIC "-//W3C//DTD SVG 20010904//EN"
 "http://www.w3.org/TR/2001/REC-SVG-20010904/DTD/svg10.dtd">
<svg version="1.0" xmlns="http://www.w3.org/2000/svg"
 width="140.000000pt" height="140.000000pt" viewBox="0 0 140.000000 140.000000"
 preserveAspectRatio="xMidYMid meet">
<metadata>
Created by potrace 1.14, written by Peter Selinger 2001-2017
</metadata>
<g transform="translate(0.000000,140.000000) scale(0.100000,-0.100000)"
fill="#000000" stroke="none">
<path d="M0 945 c0 -241 0 -245 21 -245 13 0 18 -4 13 -12 -5 -7 -3 -8 7 -2
18 11 60 13 53 3 -2 -4 0 -10 6 -14 5 -3 10 0 10 7 0 8 3 9 8 3 4 -6 34 -12
67 -13 33 -1 61 -6 63 -12 2 -5 32 -10 67 -10 41 0 65 -4 68 -12 4 -10 6 -10
6 0 1 14 28 16 33 2 2 -5 22 -11 45 -14 22 -2 46 -7 52 -10 6 -4 11 -3 11 1 0
5 9 9 20 9 22 0 27 -12 8 -19 -7 -2 21 -5 61 -6 41 -1 82 -7 90 -14 12 -10 13
-9 6 3 -6 10 -2 9 12 -3 14 -12 23 -15 28 -7 3 5 12 7 18 3 7 -4 34 -9 61 -11
48 -3 56 -8 86 -46 9 -12 10 -17 3 -12 -10 5 -13 -6 -13 -43 0 -34 -4 -51 -12
-51 -10 0 -10 -2 0 -9 8 -5 0 -7 -22 -7 -19 1 -32 4 -30 8 2 4 -1 10 -7 14 -7
4 -9 3 -5 -4 3 -6 2 -13 -4 -17 -5 -3 -10 0 -10 7 0 8 -3 9 -8 3 -4 -5 -16
-12 -26 -13 -18 -3 -19 -2 -5 15 13 17 13 17 -4 4 -20 -16 -65 -19 -86 -7 -8
5 -16 4 -21 -4 -8 -14 -19 -13 -39 3 -8 7 -12 7 -9 2 4 -7 -14 -11 -50 -10
-41 0 -59 4 -64 15 -6 13 -7 13 -7 0 -1 -13 -35 -15 -251 -14 l-250 1 0 -83
c0 -100 6 -120 28 -102 11 9 13 9 9 1 -6 -9 38 -12 178 -12 144 0 184 2 179
12 -6 9 -4 9 7 1 21 -17 243 -18 233 -1 -6 9 -5 9 7 1 21 -18 243 -19 233 -2
-6 10 -5 10 7 2 21 -17 180 -18 190 -2 7 10 9 10 9 1 0 -7 9 -13 21 -13 13 0
18 4 13 13 -6 10 -4 10 7 0 9 -9 50 -13 127 -13 88 0 112 3 106 13 -6 10 -4
10 7 0 35 -34 38 -20 39 240 1 250 -4 303 -21 275 -7 -10 -9 -10 -9 0 0 6 -5
12 -11 12 -5 0 -7 -6 -3 -12 6 -10 4 -10 -7 -2 -8 6 -27 11 -43 12 -16 1 -35
7 -43 14 -10 8 -17 8 -25 0 -7 -7 -17 -12 -23 -12 -5 0 -3 5 5 10 13 8 12 10
-2 10 -10 0 -18 -6 -18 -12 0 -10 -2 -10 -8 -1 -4 7 -23 14 -42 15 -19 2 -38
8 -42 13 -5 6 -8 5 -8 -3 0 -7 -5 -10 -10 -7 -6 4 -8 9 -6 13 2 4 -9 7 -25 7
-16 0 -29 -4 -29 -8 0 -5 -6 -5 -12 0 -7 4 -25 8 -40 9 -50 3 -54 4 -41 12 10
6 -63 13 -169 15 -21 0 -34 5 -31 11 4 5 -1 7 -10 3 -10 -4 -17 -1 -17 6 0 8
-4 6 -10 -3 -6 -10 -10 -11 -10 -2 0 14 -21 12 -32 -3 -5 -6 -8 -5 -8 3 0 7
-13 12 -30 12 -16 0 -30 5 -30 10 0 6 -5 10 -11 10 -5 0 -8 -4 -4 -9 3 -5 1
-13 -5 -16 -6 -4 -10 -3 -9 2 4 20 -2 24 -18 12 -13 -11 -15 -11 -9 -1 5 9 3
13 -5 11 -34 -4 -37 1 -34 59 4 75 4 76 12 69 3 -4 13 -2 20 5 11 9 17 9 24
-3 8 -12 10 -12 19 1 9 13 10 13 10 0 0 -13 1 -13 10 0 9 13 10 13 10 0 0 -12
2 -13 9 -1 7 11 9 11 14 0 4 -10 6 -10 6 -1 1 6 6 12 12 12 5 0 7 -6 3 -12 -5
-9 -2 -9 9 1 13 10 17 10 17 1 0 -10 3 -10 14 -1 11 9 16 9 21 0 6 -8 10 -7
16 2 7 11 9 11 9 -1 0 -13 1 -13 10 0 5 8 10 10 10 4 0 -6 7 -11 15 -11 10 0
14 6 10 16 -3 11 -1 10 10 -3 12 -16 17 -17 30 -6 12 10 15 10 15 0 0 -10 3
-10 14 -1 11 9 16 9 21 0 6 -8 10 -7 16 2 7 11 9 11 9 -1 0 -13 1 -13 10 0 6
10 10 11 10 3 0 -15 21 -13 32 2 5 6 8 4 8 -5 0 -13 1 -13 10 0 8 12 10 12 10
1 0 -11 3 -11 17 0 17 14 20 14 41 -3 8 -8 12 -7 12 3 0 12 2 12 9 0 6 -9 11
-10 15 -2 4 6 13 8 19 4 18 -12 81 -10 89 2 5 6 8 6 8 -2 0 -9 7 -10 26 -3 18
7 23 7 18 -1 -5 -8 -1 -8 14 0 15 8 23 8 28 0 4 -8 9 -7 15 2 7 12 9 12 9 0 0
-10 3 -11 13 -2 8 6 17 7 21 3 12 -11 60 -10 68 2 4 6 8 50 8 99 l0 87 -700 0
-700 0 0 -245z"/>
</g>
</svg>
