<svg width="38" height="38" viewBox="0 0 38 38" fill="none" xmlns="http://www.w3.org/2000/svg">
<path d="M32.4583 15.0417C34.8333 15.0417 34.8333 15.8333 34.8333 17.4167V20.5833C34.8333 22.1667 34.8333 22.9583 32.4583 22.9583M10.1017 15.8333C10.6242 17.9075 10.6242 20.0925 10.1017 22.1667M15.6433 15.8333C16.1658 17.9075 16.1658 20.0925 15.6433 22.1667M21.185 15.8333C21.7075 17.9075 21.7075 20.0925 21.185 22.1667" stroke="black" stroke-width="1.5" stroke-linecap="round" stroke-linejoin="round"/>
<path d="M20.5833 30.0833H11.0833C4.74999 30.0833 3.16666 28.5 3.16666 22.1667V15.8333C3.16666 9.49999 4.74999 7.91666 11.0833 7.91666H20.5833C26.9167 7.91666 28.5 9.49999 28.5 15.8333V22.1667C28.5 28.5 26.9167 30.0833 20.5833 30.0833Z" stroke="black" stroke-width="1.5" stroke-linecap="round" stroke-linejoin="round"/>
</svg>
