<svg width="25" height="25" viewBox="0 0 25 25" fill="none" xmlns="http://www.w3.org/2000/svg">
<path d="M12.5 5.79166H22.9167" stroke="black" stroke-miterlimit="10" stroke-linecap="round" stroke-linejoin="round"/>
<path d="M14.8125 2.08334H20.6042C22.4583 2.08334 22.9167 2.54168 22.9167 4.37501V8.65626C22.9167 10.4896 22.4583 10.9479 20.6042 10.9479H14.8125C12.9583 10.9479 12.5 10.4896 12.5 8.65626V4.37501C12.5 2.54168 12.9583 2.08334 14.8125 2.08334Z" stroke="black" stroke-linecap="round" stroke-linejoin="round"/>
<path d="M2.08333 17.7708H12.5" stroke="black" stroke-miterlimit="10" stroke-linecap="round" stroke-linejoin="round"/>
<path d="M22.9167 15.625C22.9167 19.6563 19.6562 22.9167 15.625 22.9167L16.7187 21.0938M2.08333 9.37501C2.08333 5.34376 5.34375 2.08334 9.375 2.08334L8.28125 3.90626M4.39583 14.0625H10.1875C12.0417 14.0625 12.5 14.5208 12.5 16.3542V20.6354C12.5 22.4688 12.0417 22.9271 10.1875 22.9271H4.39583C2.54166 22.9271 2.08333 22.4688 2.08333 20.6354V16.3542C2.08333 14.5208 2.54166 14.0625 4.39583 14.0625Z" stroke="black" stroke-linecap="round" stroke-linejoin="round"/>
</svg>
