<svg width="23" height="24" viewBox="0 0 23 24" fill="none" xmlns="http://www.w3.org/2000/svg">
<path fill-rule="evenodd" clip-rule="evenodd" d="M2.5551 12.0315C2.55467 10.6034 2.89623 9.19586 3.5512 7.92676C4.20617 6.65766 5.15552 5.56385 6.31982 4.73681C7.48413 3.90977 8.82955 3.37356 10.2435 3.17302C11.6575 2.97247 13.099 3.11344 14.4474 3.58411C14.7674 3.69561 15.1187 3.67538 15.4239 3.52789C15.729 3.3804 15.9631 3.11772 16.0746 2.79764C16.1861 2.47756 16.1659 2.1263 16.0184 1.82113C15.8709 1.51596 15.6082 1.28189 15.2881 1.17039C12.9336 0.348963 10.3759 0.315114 8.00051 1.07395C5.6251 1.83278 3.5607 3.34318 2.11847 5.37748C0.676239 7.41179 -0.0656696 9.85977 0.00456446 12.3525C0.0747986 14.8451 0.95337 17.2475 2.50786 19.1973C4.06235 21.1472 6.20852 22.539 8.62289 23.1628C11.0373 23.7867 13.589 23.6089 15.8935 22.6562C18.198 21.7035 20.1304 20.0275 21.3995 17.8809C22.6685 15.7343 23.2054 13.2333 22.9292 10.755C22.9108 10.5882 22.8597 10.4267 22.7788 10.2797C22.6979 10.1326 22.5888 10.003 22.4579 9.89806C22.3269 9.79318 22.1765 9.71512 22.0153 9.66834C21.8542 9.62156 21.6854 9.60699 21.5186 9.62545C21.3518 9.6439 21.1903 9.69503 21.0432 9.77592C20.8962 9.8568 20.7665 9.96585 20.6616 10.0968C20.5568 10.2278 20.4787 10.3782 20.4319 10.5394C20.3851 10.7005 20.3706 10.8693 20.389 11.0361C20.5236 12.2448 20.4103 13.4682 20.0561 14.6315C19.7018 15.7949 19.114 16.8738 18.3287 17.8023C17.5433 18.7308 16.5768 19.4894 15.4883 20.0318C14.3999 20.5741 13.2122 20.8888 11.998 20.9565C10.7838 21.0243 9.56847 20.8438 8.42639 20.4259C7.28431 20.0081 6.23943 19.3617 5.35562 18.5264C4.4718 17.6911 3.76762 16.6842 3.2861 15.5675C2.80458 14.4508 2.55585 13.2476 2.5551 12.0315ZM21.4023 5.21072C21.6266 4.95656 21.7408 4.62368 21.7197 4.28533C21.6987 3.94697 21.544 3.63085 21.2899 3.4065C21.0357 3.18216 20.7028 3.06797 20.3645 3.08906C20.0261 3.11015 19.71 3.26478 19.4856 3.51895L11.2631 12.8212L7.19598 9.50789C7.06594 9.40184 6.91628 9.32244 6.75555 9.27423C6.59482 9.22602 6.42617 9.20994 6.25922 9.22691C5.92206 9.26118 5.61233 9.42797 5.39815 9.69061C5.2921 9.82066 5.2127 9.97032 5.16449 10.131C5.11628 10.2918 5.1002 10.4604 5.11717 10.6274C5.15143 10.9645 5.31823 11.2743 5.58087 11.4884L10.6013 15.5773C10.857 15.7854 11.1833 15.8866 11.512 15.8597C11.8406 15.8328 12.1461 15.6799 12.3646 15.4329L21.4023 5.21072Z" fill="#00B6FF"/>
</svg>
