<svg width="82" height="82" viewBox="0 0 82 82" fill="none" xmlns="http://www.w3.org/2000/svg">
<rect x="0.5" y="0.5" width="81" height="81" rx="40.5" fill="white" stroke="black"/>
<path d="M54.0372 24.1149L54.0156 24.1299C54.0228 24.1251 54.03 24.1201 54.0372 24.1149ZM35.6326 36.224L38.866 38.3421C39.4185 38.704 39.5924 39.4384 39.2615 40.0124L29.5695 56.8256L46.3666 45.7755L43.1332 43.6574C42.5807 43.2955 42.4068 42.561 42.7377 41.987L52.4293 25.1744L35.6326 36.224V36.224ZM32.6915 37.2709C31.942 36.78 31.941 35.6753 32.6895 35.1829L52.6101 22.0784C54.3721 20.8279 56.6233 22.8666 55.5274 24.7651L45.469 42.2139L49.3077 44.7286C50.0572 45.2195 50.0583 46.3242 49.3098 46.8166L29.39 59.921C27.6283 61.1724 25.3776 59.1345 26.4718 57.2345L36.5303 39.7856L32.6916 37.271L32.6915 37.2709Z" fill="black"/>
</svg>
