<svg width="73" height="73" viewBox="0 0 73 73" fill="none" xmlns="http://www.w3.org/2000/svg">
<path d="M62.3542 28.8958C66.9167 28.8958 66.9167 30.4167 66.9167 33.4583V39.5417C66.9167 42.5833 66.9167 44.1042 62.3542 44.1042M19.4058 30.4167C20.4096 34.4012 20.4096 38.5987 19.4058 42.5833M30.0517 30.4167C31.0554 34.4012 31.0554 38.5987 30.0517 42.5833M40.6975 30.4167C41.7012 34.4012 41.7012 38.5987 40.6975 42.5833" stroke="black" stroke-width="3" stroke-linecap="round" stroke-linejoin="round"/>
<path d="M39.5417 57.7917H21.2917C9.12501 57.7917 6.08334 54.75 6.08334 42.5833V30.4167C6.08334 18.25 9.12501 15.2083 21.2917 15.2083H39.5417C51.7083 15.2083 54.75 18.25 54.75 30.4167V42.5833C54.75 54.75 51.7083 57.7917 39.5417 57.7917Z" stroke="black" stroke-width="3" stroke-linecap="round" stroke-linejoin="round"/>
</svg>
