<svg width="73" height="73" viewBox="0 0 73 73" fill="none" xmlns="http://www.w3.org/2000/svg">
<path d="M62.3542 28.8958C66.9167 28.8958 66.9167 30.4167 66.9167 33.4583V39.5417C66.9167 42.5833 66.9167 44.1042 62.3542 44.1042M30.4167 24.3333L24.6679 31.9375C23.4817 33.9754 24.9417 36.5 27.2837 36.5H34.2796C36.6217 36.5 38.0817 39.0246 36.9258 41.0625L30.4167 48.6667M21.2917 57.7917C9.125 57.7917 6.08333 54.75 6.08333 42.5833V30.4167C6.08333 18.25 9.125 15.2083 21.2917 15.2083M39.5417 15.2083C51.7083 15.2083 54.75 18.25 54.75 30.4167V42.5833C54.75 54.75 51.7083 57.7917 39.5417 57.7917" stroke="black" stroke-width="3" stroke-linecap="round" stroke-linejoin="round"/>
</svg>
