<svg width="73" height="73" viewBox="0 0 73 73" fill="none" xmlns="http://www.w3.org/2000/svg">
<path d="M28.8958 41.8229C28.8958 44.7733 31.1771 47.1458 33.9754 47.1458H39.6937C42.1271 47.1458 44.1042 45.0775 44.1042 42.4921C44.1042 39.7242 42.8875 38.7204 41.0929 38.0817L31.9375 34.8879C30.1429 34.2492 28.9262 33.2758 28.9262 30.4775C28.9262 27.9225 30.9033 25.8237 33.3367 25.8237H39.055C41.8533 25.8237 44.1346 28.1962 44.1346 31.1467M36.5 22.8125V50.1875" stroke="black" stroke-width="3" stroke-linecap="round" stroke-linejoin="round"/>
<path d="M66.9167 36.5C66.9167 53.29 53.29 66.9167 36.5 66.9167C19.71 66.9167 6.08333 53.29 6.08333 36.5C6.08333 19.71 19.71 6.08333 36.5 6.08333" stroke="black" stroke-width="3" stroke-linecap="round" stroke-linejoin="round"/>
<path d="M51.7083 9.12499V21.2917M51.7083 21.2917H63.875M51.7083 21.2917L66.9167 6.08333" stroke="black" stroke-width="3" stroke-linecap="round" stroke-linejoin="round"/>
</svg>
