<svg width="74" height="74" viewBox="0 0 74 74" fill="none" xmlns="http://www.w3.org/2000/svg">
<path d="M58.5833 27.75C58.5833 32.2208 57.2575 36.3217 54.9758 39.7442C53.3039 42.2378 51.1291 44.3543 48.591 45.9579C46.0528 47.5615 43.2075 48.6167 40.2375 49.0558C39.1892 49.2408 38.11 49.3333 37 49.3333C35.89 49.3333 34.8108 49.2408 33.7625 49.0558C30.7925 48.6167 27.9472 47.5615 25.4091 45.9579C22.8709 44.3543 20.6961 42.2378 19.0242 39.7442C16.6571 36.1931 15.4012 32.0176 15.4167 27.75C15.4167 15.8175 25.0675 6.16667 37 6.16667C48.9325 6.16667 58.5833 15.8175 58.5833 27.75Z" stroke="black" stroke-width="3" stroke-linecap="round" stroke-linejoin="round"/>
<path d="M65.5208 56.9492L60.4333 58.1517C59.2925 58.4292 58.3983 59.2925 58.1517 60.4333L57.0725 64.9658C56.9401 65.5222 56.6556 66.0308 56.2508 66.4348C55.8459 66.8387 55.3367 67.1221 54.7801 67.2533C54.2234 67.3845 53.6412 67.3582 53.0986 67.1775C52.556 66.9968 52.0744 66.6687 51.7075 66.23L37 49.3333L22.2925 66.2608C21.9256 66.6996 21.444 67.0276 20.9014 67.2084C20.3588 67.3891 19.7766 67.4153 19.2199 67.2841C18.6633 67.153 18.1541 66.8696 17.7492 66.4656C17.3444 66.0616 17.0599 65.553 16.9275 64.9967L15.8483 60.4642C15.7172 59.9096 15.4343 59.4025 15.0313 58.9995C14.6284 58.5966 14.1212 58.3137 13.5667 58.1825L8.47916 56.98C7.94613 56.8522 7.45664 56.5851 7.06081 56.2059C6.66498 55.8268 6.37702 55.3492 6.22644 54.8222C6.07586 54.2952 6.06806 53.7376 6.20384 53.2065C6.33961 52.6755 6.61409 52.1901 6.99916 51.8L19.0242 39.775C20.6961 42.2686 22.8709 44.3852 25.409 45.9887C27.9472 47.5923 30.7925 48.6475 33.7625 49.0867C34.8108 49.2717 35.89 49.3642 37 49.3642C38.11 49.3642 39.1892 49.2717 40.2375 49.0867C46.3733 48.1925 51.6458 44.7083 54.9758 39.775L67.0008 51.8C68.6967 53.465 67.8642 56.3942 65.5208 56.9492ZM38.7883 18.4383L40.6075 22.0767C40.8542 22.57 41.5017 23.0633 42.0875 23.1558L45.3867 23.7108C47.4833 24.05 47.9767 25.5917 46.4658 27.1025L43.9067 29.6617C43.475 30.0933 43.2283 30.9258 43.3825 31.5425L44.1225 34.7183C44.7083 37.2158 43.3825 38.2025 41.1625 36.8767L38.0792 35.0575C37.766 34.8904 37.4166 34.803 37.0617 34.803C36.7067 34.803 36.3573 34.8904 36.0442 35.0575L32.9608 36.8767C30.7408 38.1717 29.415 37.2158 30.0008 34.7183L30.7408 31.5425C30.8642 30.9567 30.6483 30.0933 30.2167 29.6617L27.6575 27.1025C26.1467 25.5917 26.64 24.0808 28.7367 23.7108L32.0358 23.1558C32.5908 23.0633 33.2383 22.57 33.485 22.0767L35.3042 18.4383C36.1983 16.465 37.8017 16.465 38.7883 18.4383Z" stroke="black" stroke-width="3" stroke-linecap="round" stroke-linejoin="round"/>
</svg>
