<svg width="72" height="72" viewBox="0 0 72 72" fill="none" xmlns="http://www.w3.org/2000/svg">
<path d="M45 25.11V22.23C45 13.29 38.79 9.87 31.23 14.61L22.47 20.1C21.51 20.67 20.4 21 19.29 21H15C9 21 6 24 6 30V42C6 48 9 51 15 51H21M31.23 57.39C38.79 62.13 45 58.68 45 49.77V38.85M56.43 28.26C59.13 34.71 58.32 42.24 54 48M63.45 23.4C65.6536 28.6298 66.4476 34.3459 65.7528 39.9783C65.0579 45.6107 62.8985 50.9625 59.49 55.5M66 6L6 66" stroke="black" stroke-width="3" stroke-linecap="round" stroke-linejoin="round"/>
</svg>
