<svg width="74" height="74" viewBox="0 0 74 74" fill="none" xmlns="http://www.w3.org/2000/svg">
<g clip-path="url(#clip0_575_253)">
<path d="M25.043 87.9033C24.4718 86.7691 20.2445 74.9383 16.3223 71.0162C10.908 65.6019 7.92577 58.4265 7.9262 50.8117L7.92641 13.1376C7.9262 9.73215 10.6872 6.97111 14.0925 6.97153C17.498 6.97132 20.2586 9.73193 20.2586 13.1376L20.2586 50.8119C20.2588 55.1322 21.9578 59.2108 25.0428 62.2957C28.1277 65.3807 32.2061 67.0799 36.5266 67.0799C45.4976 67.0797 52.7952 59.7816 52.795 50.8115L52.7955 13.1376C52.7952 9.73215 55.5563 6.97112 58.9615 6.97154C62.3672 6.97112 65.1278 9.73173 65.1276 13.1376L65.1276 50.8119C65.1278 58.6969 61.9202 65.8471 56.7414 71.0259C52.953 74.8143 49.7508 87.9032 49.7508 87.9032" stroke="black" stroke-width="3" stroke-linecap="round"/>
</g>
<defs>
<clipPath id="clip0_575_253">
<rect width="73" height="73" fill="white" transform="translate(0.403564 0.611328)"/>
</clipPath>
</defs>
</svg>
