<svg width="60" height="60" viewBox="0 0 60 60" fill="none" xmlns="http://www.w3.org/2000/svg">
<rect width="60" height="60" rx="10" fill="white"/>
<path d="M28.0462 14.6238L19.9375 17.6625C18.0687 18.3613 16.5412 20.5713 16.5412 22.57V34.6438C16.5412 36.5613 17.8087 39.08 19.3525 40.2338L26.34 45.45C28.6312 47.1725 32.4012 47.1725 34.6925 45.45L41.68 40.2338C43.2237 39.08 44.4912 36.5613 44.4912 34.6438V22.57C44.4912 20.5713 42.9637 18.3613 41.095 17.6625L32.9862 14.6238C31.605 14.12 29.395 14.12 28.0462 14.6238Z" stroke="black" stroke-width="2" stroke-linecap="round" stroke-linejoin="round"/>
<path d="M30.5 36.1875C32.2239 36.1875 33.8772 35.5027 35.0962 34.2837C36.3152 33.0647 37 31.4114 37 29.6875C37 27.9636 36.3152 26.3103 35.0962 25.0913C33.8772 23.8723 32.2239 23.1875 30.5 23.1875C28.7761 23.1875 27.1228 23.8723 25.9038 25.0913C24.6848 26.3103 24 27.9636 24 29.6875C24 31.4114 24.6848 33.0647 25.9038 34.2837C27.1228 35.5027 28.7761 36.1875 30.5 36.1875Z" stroke="black" stroke-width="2" stroke-miterlimit="10" stroke-linecap="round" stroke-linejoin="round"/>
<path d="M30.9062 27.6562V29.1675C30.9062 29.7363 30.6138 30.2725 30.11 30.565L28.875 31.3125" stroke="black" stroke-width="2" stroke-miterlimit="10" stroke-linecap="round" stroke-linejoin="round"/>
</svg>
