<svg width="60" height="60" viewBox="0 0 60 60" fill="none" xmlns="http://www.w3.org/2000/svg">
<rect width="60" height="60" rx="10" fill="white"/>
<path d="M30.5 32.7913L27.9163 35.3751M36.545 26.7463C37.341 27.539 37.9725 28.481 38.4035 29.5184C38.8344 30.5557 39.0563 31.668 39.0563 32.7913C39.0563 33.9146 38.8344 35.0269 38.4035 36.0642C37.9725 37.1016 37.341 38.0436 36.545 38.8363C35.7522 39.6321 34.8102 40.2635 33.7728 40.6943C32.7355 41.1251 31.6233 41.3469 30.5 41.3469C29.3768 41.3469 28.2645 41.1251 27.2272 40.6943C26.1899 40.2635 25.2478 39.6321 24.455 38.8363C23.6591 38.0436 23.0275 37.1016 22.5965 36.0642C22.1656 35.0269 21.9437 33.9146 21.9437 32.7913C21.9437 31.668 22.1656 30.5557 22.5965 29.5184C23.0275 28.481 23.6591 27.539 24.455 26.7463C25.2478 25.9506 26.1899 25.3191 27.2272 24.8883C28.2645 24.4575 29.3768 24.2357 30.5 24.2357C31.6233 24.2357 32.7355 24.4575 33.7728 24.8883C34.8102 25.3191 35.7522 25.9506 36.545 26.7463Z" stroke="black" stroke-width="2" stroke-linecap="round" stroke-linejoin="round"/>
<path d="M41.9888 21.3025C42.2325 21.5463 42.2325 21.9525 41.9888 22.2125C41.745 22.4563 41.3388 22.4563 41.0788 22.2125C40.8188 21.9688 40.835 21.5625 41.0788 21.3025C41.3225 21.0425 41.745 21.0425 41.9888 21.3025Z" stroke="black" stroke-width="2" stroke-miterlimit="10"/>
<path d="M41.9888 21.3025C42.2325 21.5463 42.2325 21.9525 41.9888 22.2125C41.745 22.4563 41.3388 22.4563 41.0788 22.2125C40.8188 21.9688 40.835 21.5625 41.0788 21.3025C41.3225 21.0425 41.745 21.0425 41.9888 21.3025Z" stroke="black" stroke-width="2" stroke-linecap="round" stroke-linejoin="round"/>
<path d="M19.9212 43.37C20.165 43.6138 20.165 44.02 19.9212 44.28C19.6775 44.54 19.2712 44.5238 19.0112 44.28C18.894 44.1576 18.8286 43.9946 18.8286 43.825C18.8286 43.6555 18.894 43.4925 19.0112 43.37C19.255 43.11 19.6775 43.11 19.9212 43.37Z" stroke="black" stroke-width="2" stroke-miterlimit="10"/>
<path d="M19.9212 43.37C20.165 43.6138 20.165 44.02 19.9212 44.28C19.6775 44.54 19.2712 44.5238 19.0112 44.28C18.894 44.1576 18.8286 43.9946 18.8286 43.825C18.8286 43.6555 18.894 43.4925 19.0112 43.37C19.255 43.11 19.6775 43.11 19.9212 43.37Z" stroke="black" stroke-width="2" stroke-linecap="round" stroke-linejoin="round"/>
<path d="M46.555 32.3362C46.7988 32.58 46.7988 32.9862 46.555 33.2462C46.3113 33.49 45.905 33.49 45.645 33.2462C45.385 33.0025 45.4013 32.5962 45.645 32.3362C45.8888 32.0762 46.3113 32.0762 46.555 32.3362Z" stroke="black" stroke-width="2" stroke-miterlimit="10"/>
<path d="M46.555 32.3362C46.7988 32.58 46.7988 32.9862 46.555 33.2462C46.3113 33.49 45.905 33.49 45.645 33.2462C45.385 33.0025 45.4013 32.5962 45.645 32.3362C45.8888 32.0762 46.3113 32.0762 46.555 32.3362Z" stroke="black" stroke-width="2" stroke-linecap="round" stroke-linejoin="round"/>
<path d="M15.3387 32.3362C15.5825 32.58 15.5825 32.9862 15.3387 33.2462C15.095 33.5062 14.6887 33.49 14.4287 33.2462C14.3115 33.1237 14.2461 32.9608 14.2461 32.7912C14.2461 32.6217 14.3115 32.4587 14.4287 32.3362C14.6887 32.0762 15.095 32.0762 15.3387 32.3362Z" stroke="black" stroke-width="2" stroke-miterlimit="10"/>
<path d="M15.3387 32.3362C15.5825 32.58 15.5825 32.9862 15.3387 33.2462C15.095 33.5062 14.6887 33.49 14.4287 33.2462C14.3115 33.1237 14.2461 32.9608 14.2461 32.7912C14.2461 32.6217 14.3115 32.4587 14.4287 32.3362C14.6887 32.0762 15.095 32.0762 15.3387 32.3362Z" stroke="black" stroke-width="2" stroke-linecap="round" stroke-linejoin="round"/>
<path d="M41.9888 43.37C42.2325 43.6138 42.2325 44.02 41.9888 44.28C41.745 44.5238 41.3388 44.5238 41.0788 44.28C40.8188 44.0363 40.835 43.63 41.0788 43.37C41.3388 43.11 41.745 43.11 41.9888 43.37Z" stroke="black" stroke-width="2" stroke-miterlimit="10"/>
<path d="M41.9888 43.37C42.2325 43.6138 42.2325 44.02 41.9888 44.28C41.745 44.5238 41.3388 44.5238 41.0788 44.28C40.8188 44.0363 40.835 43.63 41.0788 43.37C41.3388 43.11 41.745 43.11 41.9888 43.37Z" stroke="black" stroke-width="2" stroke-linecap="round" stroke-linejoin="round"/>
<path d="M19.9212 21.3025C20.165 21.5463 20.165 21.9525 19.9212 22.2125C19.6775 22.4725 19.2712 22.4563 19.0112 22.2125C18.894 22.0901 18.8286 21.9271 18.8286 21.7575C18.8286 21.588 18.894 21.425 19.0112 21.3025C19.255 21.0425 19.6775 21.0425 19.9212 21.3025Z" stroke="black" stroke-width="2" stroke-miterlimit="10"/>
<path d="M19.9212 21.3025C20.165 21.5463 20.165 21.9525 19.9212 22.2125C19.6775 22.4725 19.2712 22.4563 19.0112 22.2125C18.894 22.0901 18.8286 21.9271 18.8286 21.7575C18.8286 21.588 18.894 21.425 19.0112 21.3025C19.255 21.0425 19.6775 21.0425 19.9212 21.3025Z" stroke="black" stroke-width="2" stroke-linecap="round" stroke-linejoin="round"/>
<path d="M30.955 16.72C31.1988 16.9637 31.1988 17.37 30.955 17.63C30.7113 17.89 30.305 17.8737 30.045 17.63C29.785 17.3862 29.8013 16.98 30.045 16.72C30.2888 16.46 30.7113 16.4762 30.955 16.72Z" stroke="black" stroke-width="2" stroke-miterlimit="10"/>
<path d="M30.955 16.72C31.1988 16.9637 31.1988 17.37 30.955 17.63C30.7113 17.89 30.305 17.8737 30.045 17.63C29.785 17.3862 29.8013 16.98 30.045 16.72C30.2888 16.46 30.7113 16.4762 30.955 16.72Z" stroke="black" stroke-width="2" stroke-linecap="round" stroke-linejoin="round"/>
</svg>
