<svg width="60" height="60" viewBox="0 0 60 60" fill="none" xmlns="http://www.w3.org/2000/svg">
<rect width="60" height="60" rx="10" fill="white"/>
<path d="M28.472 38.3975V41.6962C28.472 44.4912 25.872 46.75 22.6708 46.75C19.4695 46.75 16.8533 44.4912 16.8533 41.6962V38.3975C16.8533 41.1925 19.4533 43.175 22.6708 43.175C25.872 43.175 28.472 41.1762 28.472 38.3975Z" stroke="black" stroke-width="2" stroke-linecap="round" stroke-linejoin="round"/>
<path d="M28.4688 33.9287C28.4688 34.7412 28.2413 35.4887 27.8513 36.1387C26.8925 37.715 24.9263 38.7062 22.6513 38.7062C20.3763 38.7062 18.41 37.6987 17.4513 36.1387C17.0613 35.4887 16.8338 34.7412 16.8338 33.9287C16.8338 32.5312 17.4838 31.28 18.5238 30.37C19.58 29.4437 21.0263 28.8912 22.635 28.8912C24.2438 28.8912 25.69 29.46 26.7463 30.37C27.8188 31.2637 28.4688 32.5312 28.4688 33.9287Z" stroke="black" stroke-width="2" stroke-linecap="round" stroke-linejoin="round"/>
<path d="M28.472 33.9287V38.3975C28.472 41.1925 25.872 43.1749 22.6708 43.1749C19.4695 43.1749 16.8533 41.1762 16.8533 38.3975V33.9287C16.8533 31.1337 19.4533 28.875 22.6708 28.875C24.2795 28.875 25.7258 29.4437 26.782 30.3537C27.822 31.2637 28.472 32.5312 28.472 33.9287ZM46.75 28.8262V32.1737C46.75 33.0675 46.035 33.7987 45.125 33.8312H41.94C40.185 33.8312 38.5763 32.5475 38.43 30.7925C38.3325 29.7687 38.7225 28.81 39.405 28.1437C40.0063 27.5262 40.835 27.1687 41.745 27.1687H45.125C46.035 27.2012 46.75 27.9325 46.75 28.8262Z" stroke="black" stroke-width="2" stroke-linecap="round" stroke-linejoin="round"/>
<path d="M14.25 28.0625V24.8125C14.25 20.3925 16.915 17.305 21.0588 16.785C21.4813 16.72 21.92 16.6875 22.375 16.6875H37C37.4225 16.6875 37.8288 16.7037 38.2188 16.7687C42.4112 17.2562 45.125 20.36 45.125 24.8125V27.1687H41.745C40.835 27.1687 40.0062 27.5263 39.405 28.1438C38.7225 28.81 38.3325 29.7688 38.43 30.7925C38.5762 32.5475 40.185 33.8313 41.94 33.8313H45.125V36.1875C45.125 41.0625 41.875 44.3125 37 44.3125H32.9375" stroke="black" stroke-width="2" stroke-linecap="round" stroke-linejoin="round"/>
</svg>
