<svg width="60" height="60" viewBox="0 0 60 60" fill="none" xmlns="http://www.w3.org/2000/svg">
<rect width="60" height="60" rx="10" fill="white"/>
<path d="M30.7788 17.9333H22.4053C19.45 17.9333 18.7827 20.3001 18.4172 23.2267L17.0667 33.5333H36.1333L34.7828 23.2267C34.3856 20.3001 33.7341 17.9333 30.7788 17.9333Z" stroke="black" stroke-width="2" stroke-linecap="round" stroke-linejoin="round"/>
<path d="M19.125 38.2188H22.7812M30.0937 38.2188H33.75M41.4037 25.2025C41.8587 24.1462 41.6962 22.7162 40.8512 21.465C40.0225 20.2137 38.755 19.515 37.6012 19.5313M46.4575 26.8112C47.14 24.3575 46.6525 21.3512 44.9137 18.7512C43.175 16.1512 40.575 14.5587 38.04 14.25M38.6087 44.085C38.7387 45.515 37.6012 46.75 36.1387 46.75H33.8475C32.5312 46.75 32.3525 46.1812 32.1087 45.4987L31.865 44.7675C31.5237 43.7763 31.2962 43.0938 29.5412 43.0938H23.3012C21.5462 43.0938 21.2862 43.8575 20.9775 44.7675L20.7337 45.4987C20.5062 46.1975 20.3275 46.75 18.995 46.75H16.7037C15.2412 46.75 14.0875 45.515 14.2337 44.085L14.9162 36.6588C15.095 34.8225 15.4362 33.3275 18.6375 33.3275H34.1887C37.39 33.3275 37.7312 34.8225 37.91 36.6588L38.6087 44.085Z" stroke="black" stroke-width="2" stroke-linecap="round" stroke-linejoin="round"/>
</svg>
