<svg width="48" height="48" viewBox="0 0 48 48" fill="none" xmlns="http://www.w3.org/2000/svg">
<path d="M24 16.2599V25.9199M21.5 4.89989C22.9 3.71989 25.16 3.71989 26.52 4.89989L29.68 7.59989C30.28 8.09989 31.42 8.51989 32.22 8.51989H35.62C37.74 8.51989 39.48 10.2599 39.48 12.3799V15.7799C39.48 16.5799 39.9 17.6999 40.4 18.2999L43.1 21.4599C44.28 22.8599 44.28 25.1199 43.1 26.4799L40.4 29.6399C39.9 30.2399 39.48 31.3599 39.48 32.1599V35.5599C39.48 37.6799 37.74 39.4199 35.62 39.4199H32.22C31.42 39.4199 30.3 39.8399 29.7 40.3399L26.54 43.0399C25.14 44.2199 22.88 44.2199 21.52 43.0399L18.36 40.3399C17.76 39.8399 16.62 39.4199 15.84 39.4199H12.34C10.22 39.4199 8.47999 37.6799 8.47999 35.5599V32.1399C8.47999 31.3599 8.07999 30.2199 7.57999 29.6399L4.87999 26.4599C3.71999 25.0799 3.71999 22.8399 4.87999 21.4599L7.57999 18.2799C8.07999 17.6799 8.47999 16.5599 8.47999 15.7799V12.3999C8.47999 10.2799 10.22 8.53989 12.34 8.53989H15.8C16.6 8.53989 17.72 8.11989 18.32 7.61989L21.5 4.89989Z" stroke="black" stroke-width="1.5" stroke-linecap="round" stroke-linejoin="round"/>
<path d="M23.99 32H24.0073" stroke="black" stroke-width="2" stroke-linecap="round" stroke-linejoin="round"/>
</svg>
