<svg width="1581" height="548" viewBox="0 0 1581 548" fill="none" xmlns="http://www.w3.org/2000/svg">
<g opacity="0.1">
<path d="M193.278 547.968C152.387 547.968 115.486 541.485 82.5741 528.52C49.6621 515.056 22.2354 495.608 0.294098 470.176L95.2901 357.976C109.253 374.931 122.966 387.896 136.43 396.872C149.894 405.349 163.857 409.588 178.318 409.588C216.217 409.588 235.166 387.896 235.166 344.512V145.544H57.1421V12.4H409.45V334.04C409.45 405.848 390.999 459.455 354.098 494.86C317.197 530.265 263.59 547.968 193.278 547.968Z" fill="black"/>
<path d="M422.593 536L651.481 12.4H825.017L1053.9 536H871.393L702.345 96.176H771.161L602.113 536H422.593ZM558.729 444.744L603.609 317.584H844.465L889.345 444.744H558.729Z" fill="black"/>
<path d="M1345.55 547.968C1303.66 547.968 1264.76 541.485 1228.86 528.52C1193.46 515.056 1162.54 496.107 1136.11 471.672C1110.18 447.237 1089.98 418.315 1075.52 384.904C1061.06 351.493 1053.83 314.592 1053.83 274.2C1053.83 233.808 1061.06 196.907 1075.52 163.496C1089.98 130.085 1110.18 101.163 1136.11 76.728C1162.54 52.2933 1193.46 33.5933 1228.86 20.628C1264.76 7.16401 1303.66 0.432007 1345.55 0.432007C1396.91 0.432007 1442.29 9.40801 1481.68 27.36C1521.58 45.312 1554.49 71.2426 1580.42 105.152L1468.97 204.636C1453.51 185.188 1436.31 170.228 1417.36 159.756C1398.91 148.785 1377.96 143.3 1354.52 143.3C1336.07 143.3 1319.37 146.292 1304.41 152.276C1289.45 158.26 1276.48 166.987 1265.51 178.456C1255.04 189.925 1246.81 203.888 1240.83 220.344C1234.84 236.301 1231.85 254.253 1231.85 274.2C1231.85 294.147 1234.84 312.348 1240.83 328.804C1246.81 344.761 1255.04 358.475 1265.51 369.944C1276.48 381.413 1289.45 390.14 1304.41 396.124C1319.37 402.108 1336.07 405.1 1354.52 405.1C1377.96 405.1 1398.91 399.864 1417.36 389.392C1436.31 378.421 1453.51 363.212 1468.97 343.764L1580.42 443.248C1554.49 476.659 1521.58 502.589 1481.68 521.04C1442.29 538.992 1396.91 547.968 1345.55 547.968Z" fill="black"/>
</g>
</svg>
