<svg width="43" height="43" viewBox="0 0 43 43" fill="none" xmlns="http://www.w3.org/2000/svg">
<path d="M30.4584 24.0082V29.3832C30.4584 36.5498 27.5917 39.4165 20.425 39.4165H13.6167C6.45004 39.4165 3.58337 36.5498 3.58337 29.3832V22.5748C3.58337 15.4082 6.45004 12.5415 13.6167 12.5415H18.9917" stroke="white" stroke-width="1.5" stroke-linecap="round" stroke-linejoin="round"/>
<path d="M20.7833 3.5835H27.95M12.5416 8.9585C12.5416 5.98433 14.9425 3.5835 17.9166 3.5835H22.6108M39.4166 14.3335V25.4239C39.4166 28.201 37.1591 30.4585 34.382 30.4585M39.4166 14.3335H34.0416C30.0104 14.3335 28.6666 12.9897 28.6666 8.9585V3.5835L39.4166 14.3335ZM30.4583 24.0085H24.725C20.425 24.0085 18.9916 22.5752 18.9916 18.2752V12.5418L30.4583 24.0085Z" stroke="white" stroke-width="1.5" stroke-linecap="round" stroke-linejoin="round"/>
</svg>
