<svg width="43" height="43" viewBox="0 0 43 43" fill="none" xmlns="http://www.w3.org/2000/svg">
<path d="M39.4166 17.9168V26.8752C39.4166 35.8335 35.8333 39.4168 26.8749 39.4168H16.1249C7.16659 39.4168 3.58325 35.8335 3.58325 26.8752V16.1252C3.58325 7.16683 7.16659 3.5835 16.1249 3.5835H25.0833" stroke="black" stroke-width="1.5" stroke-linecap="round" stroke-linejoin="round"/>
<path d="M39.4166 17.9168H32.2499C26.8749 17.9168 25.0833 16.1252 25.0833 10.7502V3.5835L39.4166 17.9168Z" stroke="black" stroke-width="1.5" stroke-linecap="round" stroke-linejoin="round"/>
<path d="M14.9067 21.5H19.6547C20.1384 21.5 20.7476 21.8225 20.9984 22.2167L23.023 25.2625C23.4351 25.8717 23.3455 26.7854 22.8259 27.305L18.4184 31.7125C17.7913 32.3396 16.7522 32.3396 16.1251 31.7125L11.7176 27.305C11.4629 27.0346 11.3054 26.6872 11.2697 26.3175C11.234 25.9477 11.3223 25.5766 11.5205 25.2625L13.5451 22.2167C13.8317 21.8225 14.4409 21.5 14.9067 21.5Z" stroke="black" stroke-width="1.5" stroke-miterlimit="10" stroke-linecap="round" stroke-linejoin="round"/>
</svg>
