<svg width="43" height="43" viewBox="0 0 43 43" fill="none" xmlns="http://www.w3.org/2000/svg">
<path d="M33.1458 17.021V25.9793M21.5 25.9793C22.6879 25.9793 23.8272 25.5074 24.6672 24.6674C25.5072 23.8274 25.9791 22.6881 25.9791 21.5002C25.9791 20.3122 25.5072 19.1729 24.6672 18.3329C23.8272 17.4929 22.6879 17.021 21.5 17.021C20.312 17.021 19.1727 17.4929 18.3327 18.3329C17.4927 19.1729 17.0208 20.3122 17.0208 21.5002C17.0208 22.6881 17.4927 23.8274 18.3327 24.6674C19.1727 25.5074 20.312 25.9793 21.5 25.9793ZM16.125 32.2502C16.125 33.5939 15.7487 34.866 15.0858 35.941C14.4542 37.0025 13.557 37.8813 12.4826 38.4908C11.4082 39.1002 10.1935 39.4194 8.95831 39.4168C7.72307 39.4194 6.50845 39.1002 5.43403 38.4908C4.35961 37.8813 3.46243 37.0025 2.83081 35.941C2.14879 34.8309 1.78899 33.553 1.79164 32.2502C1.79164 28.2906 4.99872 25.0835 8.95831 25.0835C12.9179 25.0835 16.125 28.2906 16.125 32.2502Z" stroke="black" stroke-width="1.5" stroke-miterlimit="10" stroke-linecap="round" stroke-linejoin="round"/>
<path d="M6.16516 32.25L7.93891 34.0237L11.7552 30.4941" stroke="black" stroke-width="1.5" stroke-linecap="round" stroke-linejoin="round"/>
<path d="M3.58337 27.4123V16.1248C3.58337 9.854 7.16671 7.1665 12.5417 7.1665H30.4584C35.8334 7.1665 39.4167 9.854 39.4167 16.1248V26.8748C39.4167 33.1457 35.8334 35.8332 30.4584 35.8332H15.2292" stroke="black" stroke-width="1.5" stroke-miterlimit="10" stroke-linecap="round" stroke-linejoin="round"/>
</svg>
