<svg width="43" height="43" viewBox="0 0 43 43" fill="none" xmlns="http://www.w3.org/2000/svg">
<path d="M5.67957 13.3301L21.5 22.4855L37.2129 13.3838M21.5 38.718V22.4676" stroke="black" stroke-width="1.5" stroke-linecap="round" stroke-linejoin="round"/>
<path d="M38.7179 16.4297V26.5706C38.7179 26.6602 38.7179 26.7318 38.7 26.8214C37.4459 25.7285 35.8334 25.0835 34.0417 25.0835C32.3575 25.0835 30.7988 25.6747 29.5625 26.6602C28.7215 27.3285 28.0428 28.1786 27.5774 29.1468C27.1119 30.1149 26.8718 31.1759 26.875 32.2502C26.875 33.5939 27.2513 34.866 27.9142 35.941C28.0754 36.2277 28.2725 36.4964 28.4875 36.7472L25.2088 38.5568C23.1663 39.7035 19.8338 39.7035 17.7913 38.5568L8.22377 33.2535C6.05585 32.0531 4.2821 29.0431 4.2821 26.5706V16.4297C4.2821 13.9572 6.05585 10.9472 8.22377 9.74683L17.7913 4.4435C19.8338 3.29683 23.1663 3.29683 25.2088 4.4435L34.7763 9.74683C36.9442 10.9472 38.7179 13.9572 38.7179 16.4297Z" stroke="black" stroke-width="1.5" stroke-linecap="round" stroke-linejoin="round"/>
<path d="M41.2083 32.2501C41.2083 34.4001 40.2587 36.3172 38.7717 37.6251C37.4652 38.7773 35.7837 39.4142 34.0417 39.4167C30.0821 39.4167 26.875 36.2097 26.875 32.2501C26.875 29.9926 27.9142 27.968 29.5625 26.6601C30.616 25.8157 31.8866 25.2862 33.228 25.1325C34.5693 24.9788 35.9268 25.2073 37.1439 25.7915C38.3611 26.3758 39.3884 27.292 40.1075 28.4347C40.8266 29.5774 41.2082 30.9 41.2083 32.2501Z" stroke="black" stroke-width="1.5" stroke-miterlimit="10" stroke-linecap="round" stroke-linejoin="round"/>
<path d="M34.4896 30.0103V32.6978L32.25 34.0415" stroke="black" stroke-width="1.5" stroke-miterlimit="10" stroke-linecap="round" stroke-linejoin="round"/>
</svg>
