<svg width="43" height="43" viewBox="0 0 43 43" fill="none" xmlns="http://www.w3.org/2000/svg">
<g clip-path="url(#clip0_418_84)">
<path d="M22.188 17.2001C22.0017 17.2058 21.8225 17.2832 21.6906 17.418L17.9095 21.1876L15.5803 18.8656C14.9282 18.1862 13.8747 19.2354 14.5555 19.8862L17.3978 22.7213C17.6802 23.0037 18.1388 23.0037 18.4226 22.7213L22.7155 18.4399C23.1885 17.9813 22.8402 17.2001 22.1894 17.2001H22.188ZM0.716667 22.9334H5.01667C5.4137 22.9334 5.73333 23.2531 5.73333 23.6501C5.73333 24.0471 5.4137 24.3668 5.01667 24.3668H0.716667C0.319633 24.3668 0 24.0471 0 23.6501C0 23.2531 0.319633 22.9334 0.716667 22.9334ZM0.716667 17.2001H5.01667C5.4137 17.2001 5.73333 17.5197 5.73333 17.9168C5.73333 18.3138 5.4137 18.6334 5.01667 18.6334H0.716667C0.319633 18.6334 0 18.3138 0 17.9168C0 17.5197 0.319633 17.2001 0.716667 17.2001ZM0.716667 11.4668H5.01667C5.4137 11.4668 5.73333 11.7864 5.73333 12.1834C5.73333 12.5805 5.4137 12.9001 5.01667 12.9001H0.716667C0.319633 12.9001 0 12.5805 0 12.1834C0 11.7864 0.319633 11.4668 0.716667 11.4668ZM35.1167 27.2334C33.1458 27.2334 31.5333 28.8459 31.5333 30.8168C31.5333 32.7876 33.1458 34.4001 35.1167 34.4001C37.0875 34.4001 38.7 32.7876 38.7 30.8168C38.7 28.8459 37.0875 27.2334 35.1167 27.2334ZM35.1167 28.6668C36.3121 28.6668 37.2667 29.6214 37.2667 30.8168C37.2667 32.0122 36.3121 32.9668 35.1167 32.9668C33.9213 32.9668 32.9667 32.0122 32.9667 30.8168C32.9667 29.6214 33.9213 28.6668 35.1167 28.6668ZM16.4833 27.2334C14.5125 27.2334 12.9 28.8459 12.9 30.8168C12.9 32.7876 14.5125 34.4001 16.4833 34.4001C18.4542 34.4001 20.0667 32.7876 20.0667 30.8168C20.0667 28.8459 18.4542 27.2334 16.4833 27.2334ZM16.4833 28.6668C17.6787 28.6668 18.6333 29.6214 18.6333 30.8168C18.6333 32.0122 17.6787 32.9668 16.4833 32.9668C15.2879 32.9668 14.3333 32.0122 14.3333 30.8168C14.3333 29.6214 15.2879 28.6668 16.4833 28.6668ZM9.31667 8.6001C8.13847 8.6001 7.16667 9.5719 7.16667 10.7501V26.5168C7.16667 27.695 8.13847 28.6668 9.31667 28.6668H12.1833C13.1523 28.6811 13.1523 27.2191 12.1833 27.2334H9.31667C8.90673 27.2334 8.6 26.9267 8.6 26.5168V10.7501C8.6 10.3402 8.90673 10.0334 9.31667 10.0334H27.95C28.3599 10.0334 28.6667 10.3402 28.6667 10.7501V27.2334H20.7833C19.8373 27.2334 19.8545 28.6811 20.7833 28.6668H30.8167C31.7627 28.6668 31.7541 27.2334 30.8167 27.2334H30.1V14.3334H36.1587L41.5667 22.7844V26.5168C41.5667 26.9267 41.2599 27.2334 40.85 27.2334H39.4167C38.4793 27.2334 38.4793 28.6668 39.4167 28.6668H40.85C42.0282 28.6668 43 27.695 43 26.5168V22.5751C43 22.4389 42.9613 22.3028 42.8882 22.1881L37.1549 13.2298C37.023 13.0248 36.7965 12.9001 36.55 12.9001H30.1V10.7501C30.1 9.5719 29.1282 8.6001 27.95 8.6001H9.31667Z" fill="black"/>
</g>
<defs>
<clipPath id="clip0_418_84">
<rect width="43" height="43" fill="white"/>
</clipPath>
</defs>
</svg>
