<svg width="73" height="73" viewBox="0 0 73 73" fill="none" xmlns="http://www.w3.org/2000/svg">
<g opacity="0.73">
<path d="M55.3945 32.2911L60.245 37.1416L57.6729 39.7138L56.3155 38.3564L55.9619 38.0029L55.6084 38.3564L43.917 50.0478C41.3498 52.615 37.1395 52.615 34.5723 50.0478L30.3662 45.8418L30.012 45.4875L29.6584 45.8425L13.0452 62.5256L10.4745 59.9548L27.1575 43.3416L27.5125 42.988L27.1582 42.6338L22.9522 38.4277C20.385 35.8605 20.385 31.6502 22.9522 29.083L34.6436 17.3916L34.9971 17.0381L34.6436 16.6845L33.2862 15.3271L35.8584 12.755L40.7089 17.6055L41.0611 17.9577L41.4147 17.6069L50.1861 8.90397L52.6898 11.4076L43.9869 20.1791L43.6361 20.5326L43.9882 20.8848L52.1152 29.0118L52.4674 29.3639L52.8209 29.0131L61.5924 20.3102L64.096 22.8139L55.3931 31.5853L55.0423 31.9389L55.3945 32.2911ZM37.8516 19.8925L37.498 19.539L37.1445 19.8925L25.4531 31.5839C24.8924 32.1447 24.645 32.9761 24.645 33.7554C24.645 34.5347 24.8924 35.3661 25.4531 35.9268L37.0732 47.5469C37.6339 48.1076 38.4653 48.355 39.2446 48.355C40.0239 48.355 40.8553 48.1076 41.4161 47.5469L53.1075 35.8555L53.461 35.502L53.1075 35.1484L37.8516 19.8925Z" fill="black" stroke="white"/>
</g>
</svg>
