<svg width="80" height="80" viewBox="0 0 80 80" fill="none" xmlns="http://www.w3.org/2000/svg">
<path d="M63.8 64.9999C69.9202 58.7769 73.3449 50.3949 73.3333 41.6666C73.3333 23.2666 58.4 8.33325 40 8.33325C21.6 8.33325 6.66663 23.2666 6.66663 41.6666C6.66663 50.7333 10.2666 58.9333 16.1333 64.9666" stroke="black" stroke-width="1.5" stroke-miterlimit="10" stroke-linecap="round" stroke-linejoin="round"/>
<path d="M39.9999 71.6667C42.988 71.6667 45.8538 70.4796 47.9667 68.3667C50.0796 66.2538 51.2666 63.3881 51.2666 60.4C51.2666 57.4119 50.0796 54.5462 47.9667 52.4333C45.8538 50.3204 42.988 49.1333 39.9999 49.1333C37.0118 49.1333 34.1461 50.3204 32.0332 52.4333C29.9203 54.5462 28.7333 57.4119 28.7333 60.4C28.7333 63.3881 29.9203 66.2538 32.0332 68.3667C34.1461 70.4796 37.0118 71.6667 39.9999 71.6667ZM50.8333 40H53.3333C56.0666 40 58.3333 37.7667 58.3333 35C58.3333 32.2667 56.0666 30 53.3333 30C50.5999 30 48.3333 32.2333 48.3333 35V37.5C48.3333 38.8667 49.4666 40 50.8333 40Z" stroke="black" stroke-width="1.5" stroke-miterlimit="10" stroke-linecap="round" stroke-linejoin="round"/>
</svg>
