<svg width="80" height="80" viewBox="0 0 80 80" fill="none" xmlns="http://www.w3.org/2000/svg">
<path d="M28.625 15.02V15.0199C28.6244 11.253 30.0508 8.46372 32.1645 6.61042C34.288 4.74859 37.1348 3.80658 39.999 3.80688C42.8632 3.80719 45.7102 4.7498 47.8341 6.61183C49.9482 8.46536 51.375 11.2544 51.375 15.02V48.115V48.3234L51.523 48.4701C54.5198 51.4402 56.375 55.5564 56.375 60.105C56.375 69.1489 49.0439 76.48 40 76.48C30.9561 76.48 23.625 69.1489 23.625 60.105C23.625 55.5564 25.4802 51.4402 28.477 48.4701L28.625 48.3234V48.115V15.02ZM40 73.625H40.0002C47.526 73.6224 53.6275 67.5238 53.6275 59.9975C53.6275 56.0035 51.907 52.4102 49.1577 49.9073L49.1448 49.8815L49.0797 49.8204C48.8426 49.598 48.6859 49.2904 48.6585 48.9409L48.6562 48.9125L48.6508 48.8846L48.6333 48.7946L48.6321 48.7887L48.6275 48.7663V15.0536C48.6375 14.8953 48.6425 14.7349 48.6425 14.5725C48.6425 10.0364 44.9661 6.36001 40.43 6.36001C40.2838 6.36001 40.1402 6.36444 40.0126 6.37129C39.8712 6.36453 39.7252 6.36001 39.5775 6.36001C35.0414 6.36001 31.365 10.0364 31.365 14.5725C31.365 14.7344 31.37 14.8934 31.3775 15.0314V48.7663L31.3729 48.7887L31.3675 48.8149C31.3602 48.8409 31.3479 48.891 31.3438 48.9494L31.3425 48.9672V48.9695C31.3091 49.3032 31.1556 49.602 30.9228 49.8204L30.8577 49.8815L30.8461 49.9047C28.1008 52.3962 26.375 55.995 26.375 59.9975C26.375 67.5235 32.4737 73.625 40 73.625ZM31.374 48.7919C31.3741 48.7918 31.3738 48.7929 31.3731 48.7954C31.3736 48.7933 31.374 48.7921 31.374 48.7919ZM41.375 53.4175V53.803L41.7478 53.9011L41.7889 53.9119C44.4406 54.6859 46.375 57.1331 46.375 60.0325C46.375 63.5539 43.5214 66.4075 40 66.4075C36.4786 66.4075 33.625 63.5539 33.625 60.0325C33.625 57.1329 35.5603 54.6829 38.2644 53.8977L38.625 53.793V53.4175V33.7525C38.625 32.9937 39.2411 32.3775 40 32.3775C40.7589 32.3775 41.375 32.9937 41.375 33.7525V53.4175ZM66.25 18.625H66.2505C68.9413 18.6222 71.1222 16.4413 71.125 13.7505V13.75C71.125 11.0589 68.9411 8.87501 66.25 8.87501C63.5589 8.87501 61.375 11.0589 61.375 13.75C61.375 16.4412 63.5589 18.625 66.25 18.625ZM58.625 13.75C58.625 9.53876 62.0385 6.12519 66.2497 6.12501C70.4589 6.12982 73.8703 9.54135 73.875 13.7506C73.8747 17.9617 70.4612 21.375 66.25 21.375C62.0386 21.375 58.625 17.9614 58.625 13.75Z" fill="black" stroke="white"/>
</svg>
