<svg width="62" height="70" viewBox="0 0 62 70" fill="none" xmlns="http://www.w3.org/2000/svg">
<path d="M50.5545 39.0001H28.7075L20.6607 8.91331C19.9745 6.35146 18.2987 4.16713 16.0019 2.84088C13.7052 1.51462 10.9756 1.15506 8.41375 1.84131C5.85189 2.52756 3.66757 4.2034 2.34131 6.50015C1.01506 8.79691 0.655503 11.5265 1.34175 14.0883L12.3635 55.2921C12.648 56.3557 13.2757 57.2957 14.149 57.9662C15.0224 58.6367 16.0927 59.0001 17.1937 59.0001H38.5V64.0001H1V69.0001H38.5C39.8261 69.0001 41.0979 68.4733 42.0355 67.5356C42.9732 66.5979 43.5 65.3262 43.5 64.0001V59.0001H51C52.397 58.9983 53.7782 58.7042 55.0548 58.1366C56.3313 57.5691 57.4749 56.7406 58.4121 55.7045C59.3493 54.6685 60.0592 53.4478 60.4963 52.1209C60.9334 50.794 61.0879 49.3903 60.95 48.0001C60.6294 45.4832 59.3914 43.1731 57.4731 41.5123C55.5549 39.8516 53.0914 38.9571 50.5545 39.0001ZM51 54.0001H17.194L6.1715 12.7953C5.82831 11.5144 6.00802 10.1496 6.67111 9.00116C7.33419 7.85273 8.42632 7.01475 9.70725 6.67156C10.9882 6.32837 12.353 6.50809 13.5014 7.17117C14.6498 7.83425 15.4878 8.92638 15.831 10.2073L24.8665 44.0001H51C52.3261 44.0001 53.5979 44.5269 54.5355 45.4645C55.4732 46.4022 56 47.674 56 49.0001C56 50.3262 55.4732 51.5979 54.5355 52.5356C53.5979 53.4733 52.3261 54.0001 51 54.0001Z" fill="black" stroke="white" stroke-width="2"/>
</svg>
