<svg width="80" height="80" viewBox="0 0 80 80" fill="none" xmlns="http://www.w3.org/2000/svg">
<g clip-path="url(#clip0_569_232)">
<path d="M62.5026 26.0712L52.689 16.0596C52.6884 16.0589 52.6877 16.0582 52.6871 16.0576C51.6038 14.9388 50.998 13.4425 50.998 11.8852C50.998 10.3271 51.6043 8.83027 52.6885 7.71136C53.2152 7.1699 53.8451 6.73949 54.5409 6.44555C55.237 6.1515 55.985 6 56.7407 6C57.4964 6 58.2444 6.1515 58.9405 6.44555C59.6366 6.7396 60.2667 7.17022 60.7936 7.71198L60.7961 7.71455L61.7886 8.7278L62.5065 9.46073L63.2208 8.72427L64.2026 7.71202C64.2026 7.71195 64.2027 7.71188 64.2028 7.7118C64.7296 7.17019 65.3597 6.73966 66.0557 6.44566C66.7518 6.15162 67.4998 6.0001 68.2554 6.00005L62.5026 26.0712ZM62.5026 26.0712L72.3069 16.0596C72.3075 16.059 72.308 16.0584 72.3086 16.0578C73.3921 14.939 73.9979 13.4426 73.9979 11.8852C73.9979 10.327 73.3915 8.83006 72.3072 7.71112C71.7806 7.16981 71.1508 6.73951 70.4551 6.44562C69.7591 6.15159 69.0111 6.00008 68.2555 6.00005L62.5026 26.0712Z" stroke="black" stroke-width="2"/>
<path d="M59.5545 45.0001H37.7075L29.6607 14.9133C28.9745 12.3515 27.2987 10.1671 25.0019 8.84088C22.7052 7.51462 19.9756 7.15506 17.4137 7.84131C14.8519 8.52756 12.6676 10.2034 11.3413 12.5002C10.0151 14.7969 9.6555 17.5265 10.3418 20.0883L21.3635 61.2921C21.648 62.3557 22.2757 63.2957 23.149 63.9662C24.0224 64.6367 25.0927 65.0001 26.1937 65.0001H47.5V70.0001H10V75.0001H47.5C48.8261 75.0001 50.0979 74.4733 51.0355 73.5356C51.9732 72.5979 52.5 71.3262 52.5 70.0001V65.0001H60C61.397 64.9983 62.7782 64.7042 64.0548 64.1366C65.3313 63.5691 66.4749 62.7406 67.4121 61.7045C68.3493 60.6685 69.0592 59.4478 69.4963 58.1209C69.9334 56.794 70.0879 55.3903 69.95 54.0001C69.6294 51.4832 68.3914 49.1731 66.4731 47.5123C64.5549 45.8516 62.0914 44.9571 59.5545 45.0001ZM60 60.0001H26.194L15.1715 18.7953C14.8283 17.5144 15.008 16.1496 15.6711 15.0012C16.3342 13.8527 17.4263 13.0148 18.7073 12.6716C19.9882 12.3284 21.353 12.5081 22.5014 13.1712C23.6498 13.8343 24.4878 14.9264 24.831 16.2073L33.8665 50.0001H60C61.3261 50.0001 62.5979 50.5269 63.5355 51.4645C64.4732 52.4022 65 53.674 65 55.0001C65 56.3262 64.4732 57.5979 63.5355 58.5356C62.5979 59.4733 61.3261 60.0001 60 60.0001Z" fill="black"/>
</g>
<defs>
<clipPath id="clip0_569_232">
<rect width="80" height="80" fill="white"/>
</clipPath>
</defs>
</svg>
