<svg width="73" height="73" viewBox="0 0 73 73" fill="none" xmlns="http://www.w3.org/2000/svg">
<path d="M57.7917 30.4167C57.7917 42.1758 48.2591 51.7083 36.5 51.7083C24.741 51.7083 15.2084 42.1758 15.2084 30.4167C15.2084 18.6576 24.741 9.125 36.5 9.125C48.2591 9.125 57.7917 18.6576 57.7917 30.4167Z" stroke="black" stroke-width="1.5"/>
<path d="M45.625 30.4167C45.625 35.4565 41.5397 39.5417 36.5 39.5417C31.4603 39.5417 27.375 35.4565 27.375 30.4167C27.375 25.3772 31.4603 21.2917 36.5 21.2917C41.5397 21.2917 45.625 25.3772 45.625 30.4167Z" stroke="black" stroke-width="1.5"/>
<path d="M45.625 51.7083L50.1875 57.7916C52.0672 60.2979 50.279 63.8749 47.1458 63.8749H36.5H25.8541C22.721 63.8749 20.9326 60.2979 22.8125 57.7916L27.375 51.7083" stroke="black" stroke-width="1.5" stroke-linecap="round" stroke-linejoin="round"/>
</svg>
