<svg width="73" height="73" viewBox="0 0 73 73" fill="none" xmlns="http://www.w3.org/2000/svg">
<path d="M6.08337 27.3749V21.2916C6.08337 12.1666 12.1667 6.08325 21.2917 6.08325H51.7084C60.8334 6.08325 66.9167 12.1666 66.9167 21.2916V27.3749M6.08337 45.6249V51.7083C6.08337 60.8333 12.1667 66.9166 21.2917 66.9166H51.7084C60.8334 66.9166 66.9167 60.8333 66.9167 51.7083V45.6249" stroke="black" stroke-width="1.5" stroke-miterlimit="10" stroke-linecap="round" stroke-linejoin="round"/>
<path d="M20.3792 28.1658L36.5 37.5037L52.4992 28.2266M36.5 54.0504V37.4733" stroke="black" stroke-width="1.5" stroke-linecap="round" stroke-linejoin="round"/>
<path d="M32.7283 19.1321L22.995 24.5463C20.805 25.763 18.98 28.835 18.98 31.3596V41.6709C18.98 44.1955 20.7746 47.2675 22.995 48.4842L32.7283 53.8984C34.7966 55.0542 38.2033 55.0542 40.3021 53.8984L50.0354 48.4842C52.2254 47.2675 54.0504 44.1955 54.0504 41.6709V31.3596C54.0504 28.835 52.2558 25.763 50.0354 24.5463L40.3021 19.1321C38.2033 17.9459 34.7966 17.9459 32.7283 19.1321Z" stroke="black" stroke-width="1.5" stroke-linecap="round" stroke-linejoin="round"/>
</svg>
