<svg width="73" height="73" viewBox="0 0 73 73" fill="none" xmlns="http://www.w3.org/2000/svg">
<path d="M36.4999 23.9988L33.2454 29.6563C32.5154 30.9034 33.1237 31.9375 34.5533 31.9375H38.4162C39.8762 31.9375 40.4541 32.9717 39.7241 34.2188L36.4999 39.8763" stroke="black" stroke-width="1.5" stroke-linecap="round" stroke-linejoin="round"/>
<path d="M25.8541 66.9166C32.8196 64.9395 40.1804 64.9395 47.1458 66.9166M25.2458 54.8716V51.3432C18.25 47.1153 12.5012 38.8724 12.5012 30.1124C12.5012 15.0561 26.3408 3.25447 41.975 6.66113C48.8491 8.18197 54.8716 12.7445 58.0045 19.0407C64.3616 31.8157 57.67 45.3816 47.8454 51.3128V54.8411C47.8454 55.7232 48.18 57.7611 44.9254 57.7611H28.1658C24.82 57.7916 25.2458 56.4836 25.2458 54.8716Z" stroke="black" stroke-width="1.5" stroke-linecap="round" stroke-linejoin="round"/>
</svg>
