<svg width="73" height="73" viewBox="0 0 73 73" fill="none" xmlns="http://www.w3.org/2000/svg">
<path d="M6.20496 51.8706V51.3924C6.20496 50.3848 6.20496 49.8812 6.2804 49.3903C6.34737 48.9544 6.45849 48.5269 6.61196 48.1146C6.78485 47.6501 7.0295 47.2127 7.5188 46.3381L18.6697 26.4017M6.20496 51.8706C6.20496 58.9035 11.7856 64.605 18.6697 64.605C25.5538 64.605 31.1345 58.9035 31.1345 51.8706M6.20496 51.8706V51.2339C6.20496 50.3425 6.20496 49.8968 6.37479 49.5561C6.52415 49.2565 6.7625 49.013 7.05568 48.8605C7.38898 48.687 7.82528 48.687 8.69791 48.687H28.6415C29.5141 48.687 29.9504 48.687 30.2837 48.8605C30.5769 49.013 30.8153 49.2565 30.9646 49.5561C31.1345 49.8968 31.1345 50.3425 31.1345 51.2339V51.8706M18.6697 26.4017L29.8206 46.3381C30.3099 47.2127 30.5546 47.6501 30.7274 48.1146C30.8809 48.5269 30.992 48.9544 31.059 49.3903C31.1345 49.8812 31.1345 50.3848 31.1345 51.3924V51.8706M18.6697 26.4017L56.064 20.0345M56.064 20.0345L44.913 39.9709C44.4238 40.8454 44.1791 41.2829 44.0062 41.7474C43.8529 42.1596 43.7416 42.5872 43.6746 43.023C43.5992 43.5139 43.5992 44.0176 43.5992 45.0252V45.5034M56.064 20.0345L67.2149 39.9709C67.7042 40.8454 67.9488 41.2829 68.1217 41.7474C68.275 42.1596 68.3863 42.5872 68.4533 43.023C68.5287 43.5139 68.5287 44.0176 68.5287 45.0252V45.5034M43.5992 45.5034C43.5992 52.5363 49.18 58.2378 56.064 58.2378C62.9479 58.2378 68.5287 52.5363 68.5287 45.5034M43.5992 45.5034V44.8667C43.5992 43.9752 43.5992 43.5295 43.769 43.1889C43.9183 42.8893 44.1567 42.6458 44.4499 42.4933C44.7834 42.3198 45.2196 42.3198 46.0922 42.3198H66.0358C66.9083 42.3198 67.3446 42.3198 67.678 42.4933C67.9712 42.6458 68.2096 42.8893 68.3589 43.1889C68.5287 43.5295 68.5287 43.9752 68.5287 44.8667V45.5034M37.3668 7.30005V23.2181" stroke="black" stroke-width="1.5" stroke-linecap="round" stroke-linejoin="round"/>
</svg>
