<svg width="82" height="82" viewBox="0 0 82 82" fill="none" xmlns="http://www.w3.org/2000/svg">
<rect width="82" height="82" rx="41" fill="white"/>
<rect x="0.5" y="0.5" width="81" height="81" rx="40.5" stroke="black" stroke-opacity="0.3"/>
<g clip-path="url(#clip0_175_16)">
<path d="M59.4228 43.6587L49.0324 39.8385L44.6901 34.258C44.3123 33.7855 43.8366 33.4051 43.2973 33.1443C42.758 32.8834 42.1687 32.7488 41.5722 32.75H30.8274C30.1703 32.7497 29.5232 32.9139 28.9423 33.2282C28.3615 33.5425 27.8645 33.9975 27.4949 34.5533L23.8515 40.0305C23.0922 41.1705 22.6866 42.5182 22.6875 43.8977V54.75C22.6875 55.1147 22.8291 55.4644 23.0811 55.7223C23.3331 55.9801 23.6749 56.125 24.0312 56.125H26.9097C27.2027 57.3044 27.8715 58.3503 28.8103 59.0973C29.7491 59.8443 30.9045 60.2499 32.0937 60.2499C33.283 60.2499 34.4384 59.8443 35.3772 59.0973C36.316 58.3503 36.9848 57.3044 37.2778 56.125H45.7222C46.0152 57.3044 46.684 58.3503 47.6228 59.0973C48.5616 59.8443 49.717 60.2499 50.9062 60.2499C52.0955 60.2499 53.2509 59.8443 54.1897 59.0973C55.1285 58.3503 55.7973 57.3044 56.0903 56.125H58.9688C59.3251 56.125 59.6669 55.9801 59.9189 55.7223C60.1709 55.4644 60.3125 55.1147 60.3125 54.75V44.9531C60.3126 44.6699 60.2271 44.3935 60.0679 44.1618C59.9086 43.9301 59.6833 43.7544 59.4228 43.6587ZM32.0937 57.5C31.5622 57.5 31.0426 57.3387 30.6007 57.0365C30.1587 56.7344 29.8142 56.3049 29.6108 55.8024C29.4074 55.2999 29.3542 54.747 29.4579 54.2135C29.5616 53.6801 29.8175 53.1901 30.1934 52.8055C30.5693 52.4209 31.0481 52.159 31.5694 52.0528C32.0908 51.9467 32.6311 52.0012 33.1222 52.2093C33.6133 52.4175 34.033 52.77 34.3283 53.2222C34.6236 53.6744 34.7812 54.2061 34.7812 54.75C34.7803 55.4791 34.4968 56.178 33.993 56.6935C33.4892 57.209 32.8062 57.499 32.0937 57.5ZM50.9062 57.5C50.3747 57.5 49.8551 57.3387 49.4132 57.0365C48.9712 56.7344 48.6267 56.3049 48.4233 55.8024C48.2199 55.2999 48.1667 54.747 48.2704 54.2135C48.3741 53.6801 48.63 53.1901 49.0059 52.8055C49.3818 52.4209 49.8606 52.159 50.3819 52.0528C50.9033 51.9467 51.4436 52.0012 51.9347 52.2093C52.4258 52.4175 52.8455 52.77 53.1408 53.2222C53.4361 53.6744 53.5938 54.2061 53.5938 54.75C53.5929 55.4791 53.3094 56.178 52.8056 56.6935C52.3018 57.2091 51.6187 57.4991 50.9062 57.5ZM57.625 53.375H56.0903C55.7973 52.1956 55.1285 51.1497 54.1897 50.4027C53.2509 49.6557 52.0955 49.2502 50.9062 49.2502C49.717 49.2502 48.5616 49.6557 47.6228 50.4027C46.684 51.1497 46.0152 52.1956 45.7222 53.375H37.2778C36.9848 52.1956 36.316 51.1497 35.3772 50.4027C34.4384 49.6557 33.283 49.2502 32.0937 49.2502C30.9045 49.2502 29.7491 49.6557 28.8103 50.4027C27.8715 51.1497 27.2027 52.1956 26.9097 53.375H25.375V43.8977C25.3747 43.0695 25.6182 42.2605 26.0737 41.576L29.7167 36.1016C29.8398 35.9162 30.0054 35.7645 30.199 35.6596C30.3926 35.5547 30.6083 35.5 30.8274 35.5H41.5722C41.7679 35.4991 41.9614 35.5424 42.139 35.6266C42.3166 35.7108 42.4739 35.834 42.5997 35.9874L47.1677 41.8566C47.3231 42.0564 47.5298 42.208 47.7647 42.2944L57.625 45.9199V53.375Z" fill="black"/>
<path d="M52.9954 27.25C52.9954 26.5206 53.2785 25.8211 53.7825 25.3054C54.2865 24.7897 54.9701 24.5 55.6829 24.5H60.3125C59.7835 23.5547 58.9906 22.7927 58.0355 22.3118C57.0804 21.8308 56.0066 21.6528 54.952 21.8005C53.8973 21.9483 52.9098 22.4151 52.1162 23.141C51.3226 23.867 50.759 24.819 50.4977 25.875H41.5V28.625H50.4977C50.759 29.6809 51.3226 30.6329 52.1162 31.3589C52.9098 32.0849 53.8973 32.5517 54.952 32.6994C56.0066 32.8472 57.0804 32.6691 58.0355 32.1882C58.9906 31.7072 59.7835 30.9452 60.3125 30H55.6829C54.9701 30 54.2865 29.7102 53.7825 29.1945C53.2785 28.6788 52.9954 27.9793 52.9954 27.25Z" fill="black"/>
</g>
<defs>
<clipPath id="clip0_175_16">
<rect width="43" height="44" fill="white" transform="translate(20 19)"/>
</clipPath>
</defs>
</svg>
