<svg width="82" height="82" viewBox="0 0 82 82" fill="none" xmlns="http://www.w3.org/2000/svg">
<rect x="0.5" y="0.5" width="81" height="81" rx="40.5" fill="white" stroke="black"/>
<g clip-path="url(#clip0_149_22)">
<mask id="path-2-inside-1_149_22" fill="white">
<path d="M42.8645 63H39.152C37.7941 62.9985 36.4923 62.4587 35.5319 61.4988C34.5715 60.5389 34.031 59.2374 34.0288 57.8795V56.158C34.0283 56.0697 34.0051 55.9831 33.9612 55.9065C33.9174 55.8298 33.8544 55.7658 33.7785 55.7207L31.9195 54.6373C31.8429 54.5934 31.7561 54.5702 31.6678 54.5702C31.5796 54.5702 31.4928 54.5934 31.4162 54.6373L29.934 55.4925C29.3522 55.8315 28.7088 56.0514 28.0412 56.1392C27.3736 56.227 26.6951 56.181 26.0455 56.004C25.394 55.8312 24.7832 55.5311 24.2484 55.1209C23.7136 54.7108 23.2655 54.1987 22.9297 53.6143L21.0624 50.3693C20.389 49.1935 20.2077 47.7991 20.558 46.4901C20.9083 45.1811 21.7618 44.0638 22.9325 43.3815L24.4395 42.5125C24.5163 42.4675 24.58 42.4032 24.6244 42.3261C24.6688 42.2489 24.6922 42.1616 24.6925 42.0725V39.9275C24.6922 39.8384 24.6688 39.7511 24.6244 39.6739C24.58 39.5968 24.5163 39.5325 24.4395 39.4875L22.9353 38.6185C21.7635 37.9372 20.9089 36.82 20.5581 35.5107C20.2072 34.2015 20.3885 32.8067 21.0624 31.6307L22.9297 28.3857C23.2655 27.8013 23.7136 27.2892 24.2484 26.8791C24.7832 26.4689 25.394 26.1688 26.0455 25.996C26.6952 25.8182 27.3739 25.772 28.0417 25.8603C28.7095 25.9486 29.3529 26.1696 29.934 26.5102L31.4135 27.3627C31.4901 27.4079 31.5775 27.4319 31.6665 27.4319C31.7555 27.4319 31.8429 27.4079 31.9195 27.3627L33.7785 26.2793C33.8544 26.2342 33.9174 26.1702 33.9612 26.0935C34.0051 26.0169 34.0283 25.9303 34.0288 25.842V24.1205C34.031 22.7627 34.5715 21.4611 35.5319 20.5012C36.4923 19.5413 37.7941 19.0015 39.152 19H42.8728C44.2311 19.0007 45.5337 19.5402 46.4947 20.5002C47.4557 21.4602 47.9965 22.7622 47.9987 24.1205V25.842C47.9991 25.93 48.0221 26.0164 48.0655 26.0929C48.1088 26.1695 48.171 26.2336 48.2462 26.2793L50.108 27.3627C50.1841 27.408 50.271 27.4319 50.3596 27.4319C50.4482 27.4319 50.5351 27.408 50.6113 27.3627L52.0908 26.5075C52.6727 26.1676 53.3166 25.9471 53.9848 25.8593C54.653 25.7715 55.332 25.818 55.982 25.996C56.6333 26.1684 57.2438 26.4684 57.7782 26.8786C58.3125 27.2889 58.7602 27.8011 59.095 28.3857L60.9622 31.6307C61.6364 32.8063 61.8182 34.201 61.4678 35.5102C61.1175 36.8193 60.2635 37.9367 59.0922 38.6185L57.5852 39.4875C57.5084 39.5325 57.4447 39.5968 57.4003 39.6739C57.356 39.7511 57.3325 39.8384 57.3323 39.9275V42.0725C57.3325 42.1616 57.356 42.2489 57.4003 42.3261C57.4447 42.4032 57.5084 42.4675 57.5852 42.5125L59.0895 43.3815C60.2617 44.0623 61.1168 45.1795 61.4678 46.4889C61.8187 47.7983 61.6369 49.1935 60.9622 50.3693L59.095 53.6143C58.7602 54.1989 58.3125 54.7111 57.7782 55.1214C57.2438 55.5316 56.6333 55.8316 55.982 56.004C55.3318 56.1815 54.6527 56.2274 53.9846 56.1391C53.3164 56.0508 52.6725 55.8301 52.0908 55.4898L50.614 54.6373C50.5369 54.5934 50.4497 54.5703 50.361 54.5703C50.2723 54.5703 50.1851 54.5934 50.108 54.6373L48.2462 55.7207C48.171 55.7664 48.1088 55.8305 48.0655 55.9071C48.0221 55.9836 47.9991 56.07 47.9987 56.158V57.8795C47.9965 59.2393 47.4545 60.5425 46.4917 61.5027C45.5289 62.4629 44.2242 63.0015 42.8645 63ZM31.6555 51.8268C32.2351 51.825 32.8047 51.9778 33.3055 52.2695L35.1645 53.3695C35.6544 53.6552 36.0609 54.0643 36.3436 54.5559C36.6264 55.0475 36.7754 55.6046 36.776 56.1717V57.8933C36.7767 58.5244 37.028 59.1294 37.4745 59.5754C37.921 60.0215 38.5264 60.272 39.1575 60.272H42.8782C43.5096 60.272 44.1153 60.0215 44.5622 59.5756C45.0092 59.1297 45.261 58.5247 45.2625 57.8933V56.1717C45.2633 55.605 45.4122 55.0483 45.6944 54.5568C45.9765 54.0653 46.3822 53.656 46.8712 53.3695L48.7302 52.2695C49.2259 51.983 49.7884 51.8322 50.361 51.8322C50.9336 51.8322 51.496 51.983 51.9917 52.2695L53.4685 53.122C53.7386 53.2813 54.038 53.3847 54.3489 53.4258C54.6598 53.4669 54.9758 53.4449 55.278 53.3612C55.5796 53.2828 55.8626 53.1452 56.1104 52.9564C56.3583 52.7675 56.5661 52.5312 56.7217 52.2613L58.5917 49.019C58.9043 48.4721 58.9881 47.8239 58.8248 47.2155C58.6616 46.6072 58.2644 46.088 57.72 45.7712L56.2185 44.8995C55.7257 44.614 55.3165 44.2042 55.0318 43.711C54.747 43.2178 54.5967 42.6585 54.5959 42.089V39.944C54.5967 39.3745 54.747 38.8152 55.0318 38.322C55.3165 37.8288 55.7257 37.419 56.2185 37.1335L57.7228 36.2618C58.2667 35.9445 58.6633 35.4251 58.826 34.8168C58.9888 34.2085 58.9045 33.5605 58.5917 33.014L56.7217 29.7717C56.5661 29.5018 56.3583 29.2655 56.1104 29.0767C55.8626 28.8878 55.5796 28.7501 55.278 28.6717C54.6672 28.5087 54.0168 28.5937 53.4685 28.9082L51.989 29.7635C51.4944 30.052 50.9321 30.2039 50.3596 30.2039C49.787 30.2039 49.2248 30.052 48.7302 29.7635L46.8712 28.6635C46.3822 28.377 45.9765 27.9678 45.6944 27.4763C45.4122 26.9847 45.2633 26.428 45.2625 25.8612V24.1397C45.261 23.5083 45.0092 22.9033 44.5622 22.4574C44.1153 22.0114 43.5096 21.761 42.8782 21.761H39.152C38.5208 21.761 37.9155 22.0115 37.469 22.4576C37.0224 22.9036 36.7712 23.5086 36.7705 24.1397V25.8612C36.7699 26.4284 36.6209 26.9855 36.3382 27.4771C36.0554 27.9687 35.6489 28.3778 35.159 28.6635L33.3 29.7635C32.8046 30.0511 32.2421 30.2026 31.6693 30.2026C31.0965 30.2026 30.5338 30.0511 30.0385 29.7635L28.5645 28.911C28.2937 28.7535 27.9943 28.6513 27.6837 28.6102C27.3731 28.5692 27.0574 28.5901 26.755 28.6717C26.453 28.7501 26.1696 28.8877 25.9213 29.0765C25.673 29.2653 25.4647 29.5017 25.3085 29.7717L23.4385 33.014C23.1259 33.5609 23.0421 34.2091 23.2054 34.8175C23.3687 35.4258 23.7659 35.945 24.3103 36.2618L25.8118 37.1335C26.3045 37.419 26.7137 37.8288 26.9984 38.322C27.2832 38.8152 27.4335 39.3745 27.4342 39.944V42.089C27.4335 42.6585 27.2832 43.2178 26.9984 43.711C26.7137 44.2042 26.3045 44.614 25.8118 44.8995L24.3075 45.7712C23.7636 46.0885 23.367 46.6079 23.2043 47.2162C23.0415 47.8245 23.1257 48.4724 23.4385 49.019L25.3085 52.2613C25.4647 52.5313 25.673 52.7676 25.9213 52.9565C26.1696 53.1453 26.453 53.2829 26.755 53.3612C27.0571 53.4447 27.3729 53.4668 27.6837 53.4262C27.9945 53.3856 28.294 53.2831 28.5645 53.1247L30.0412 52.2695C30.5309 51.9823 31.0878 51.8296 31.6555 51.8268ZM41.0522 49.8715C38.7003 49.8686 36.4454 48.933 34.7823 47.2699C33.1192 45.6068 32.1837 43.352 32.1808 41C32.1837 38.648 33.1192 36.3932 34.7823 34.7301C36.4454 33.067 38.7003 32.1314 41.0522 32.1285C43.4047 32.1306 45.6602 33.066 47.3239 34.7292C48.9876 36.3923 49.9235 38.6476 49.9265 41C49.9235 43.3525 48.9876 45.6077 47.3239 47.2708C45.6602 48.934 43.4047 49.8694 41.0522 49.8715ZM41.0522 34.8702C39.4272 34.8724 37.8694 35.519 36.7203 36.668C35.5712 37.8171 34.9247 39.375 34.9225 41C34.9247 42.625 35.5712 44.1829 36.7203 45.332C37.8694 46.481 39.4272 47.1276 41.0522 47.1298C42.678 47.1283 44.2368 46.4822 45.387 45.3331C46.5371 44.1841 47.1845 42.6258 47.1874 41C47.1845 39.3742 46.5371 37.816 45.387 36.6669C44.2368 35.5178 42.678 34.8717 41.0522 34.8702Z"/>
</mask>
<path d="M42.8645 63H39.152C37.7941 62.9985 36.4923 62.4587 35.5319 61.4988C34.5715 60.5389 34.031 59.2374 34.0288 57.8795V56.158C34.0283 56.0697 34.0051 55.9831 33.9612 55.9065C33.9174 55.8298 33.8544 55.7658 33.7785 55.7207L31.9195 54.6373C31.8429 54.5934 31.7561 54.5702 31.6678 54.5702C31.5796 54.5702 31.4928 54.5934 31.4162 54.6373L29.934 55.4925C29.3522 55.8315 28.7088 56.0514 28.0412 56.1392C27.3736 56.227 26.6951 56.181 26.0455 56.004C25.394 55.8312 24.7832 55.5311 24.2484 55.1209C23.7136 54.7108 23.2655 54.1987 22.9297 53.6143L21.0624 50.3693C20.389 49.1935 20.2077 47.7991 20.558 46.4901C20.9083 45.1811 21.7618 44.0638 22.9325 43.3815L24.4395 42.5125C24.5163 42.4675 24.58 42.4032 24.6244 42.3261C24.6688 42.2489 24.6922 42.1616 24.6925 42.0725V39.9275C24.6922 39.8384 24.6688 39.7511 24.6244 39.6739C24.58 39.5968 24.5163 39.5325 24.4395 39.4875L22.9353 38.6185C21.7635 37.9372 20.9089 36.82 20.5581 35.5107C20.2072 34.2015 20.3885 32.8067 21.0624 31.6307L22.9297 28.3857C23.2655 27.8013 23.7136 27.2892 24.2484 26.8791C24.7832 26.4689 25.394 26.1688 26.0455 25.996C26.6952 25.8182 27.3739 25.772 28.0417 25.8603C28.7095 25.9486 29.3529 26.1696 29.934 26.5102L31.4135 27.3627C31.4901 27.4079 31.5775 27.4319 31.6665 27.4319C31.7555 27.4319 31.8429 27.4079 31.9195 27.3627L33.7785 26.2793C33.8544 26.2342 33.9174 26.1702 33.9612 26.0935C34.0051 26.0169 34.0283 25.9303 34.0288 25.842V24.1205C34.031 22.7627 34.5715 21.4611 35.5319 20.5012C36.4923 19.5413 37.7941 19.0015 39.152 19H42.8728C44.2311 19.0007 45.5337 19.5402 46.4947 20.5002C47.4557 21.4602 47.9965 22.7622 47.9987 24.1205V25.842C47.9991 25.93 48.0221 26.0164 48.0655 26.0929C48.1088 26.1695 48.171 26.2336 48.2462 26.2793L50.108 27.3627C50.1841 27.408 50.271 27.4319 50.3596 27.4319C50.4482 27.4319 50.5351 27.408 50.6113 27.3627L52.0908 26.5075C52.6727 26.1676 53.3166 25.9471 53.9848 25.8593C54.653 25.7715 55.332 25.818 55.982 25.996C56.6333 26.1684 57.2438 26.4684 57.7782 26.8786C58.3125 27.2889 58.7602 27.8011 59.095 28.3857L60.9622 31.6307C61.6364 32.8063 61.8182 34.201 61.4678 35.5102C61.1175 36.8193 60.2635 37.9367 59.0922 38.6185L57.5852 39.4875C57.5084 39.5325 57.4447 39.5968 57.4003 39.6739C57.356 39.7511 57.3325 39.8384 57.3323 39.9275V42.0725C57.3325 42.1616 57.356 42.2489 57.4003 42.3261C57.4447 42.4032 57.5084 42.4675 57.5852 42.5125L59.0895 43.3815C60.2617 44.0623 61.1168 45.1795 61.4678 46.4889C61.8187 47.7983 61.6369 49.1935 60.9622 50.3693L59.095 53.6143C58.7602 54.1989 58.3125 54.7111 57.7782 55.1214C57.2438 55.5316 56.6333 55.8316 55.982 56.004C55.3318 56.1815 54.6527 56.2274 53.9846 56.1391C53.3164 56.0508 52.6725 55.8301 52.0908 55.4898L50.614 54.6373C50.5369 54.5934 50.4497 54.5703 50.361 54.5703C50.2723 54.5703 50.1851 54.5934 50.108 54.6373L48.2462 55.7207C48.171 55.7664 48.1088 55.8305 48.0655 55.9071C48.0221 55.9836 47.9991 56.07 47.9987 56.158V57.8795C47.9965 59.2393 47.4545 60.5425 46.4917 61.5027C45.5289 62.4629 44.2242 63.0015 42.8645 63ZM31.6555 51.8268C32.2351 51.825 32.8047 51.9778 33.3055 52.2695L35.1645 53.3695C35.6544 53.6552 36.0609 54.0643 36.3436 54.5559C36.6264 55.0475 36.7754 55.6046 36.776 56.1717V57.8933C36.7767 58.5244 37.028 59.1294 37.4745 59.5754C37.921 60.0215 38.5264 60.272 39.1575 60.272H42.8782C43.5096 60.272 44.1153 60.0215 44.5622 59.5756C45.0092 59.1297 45.261 58.5247 45.2625 57.8933V56.1717C45.2633 55.605 45.4122 55.0483 45.6944 54.5568C45.9765 54.0653 46.3822 53.656 46.8712 53.3695L48.7302 52.2695C49.2259 51.983 49.7884 51.8322 50.361 51.8322C50.9336 51.8322 51.496 51.983 51.9917 52.2695L53.4685 53.122C53.7386 53.2813 54.038 53.3847 54.3489 53.4258C54.6598 53.4669 54.9758 53.4449 55.278 53.3612C55.5796 53.2828 55.8626 53.1452 56.1104 52.9564C56.3583 52.7675 56.5661 52.5312 56.7217 52.2613L58.5917 49.019C58.9043 48.4721 58.9881 47.8239 58.8248 47.2155C58.6616 46.6072 58.2644 46.088 57.72 45.7712L56.2185 44.8995C55.7257 44.614 55.3165 44.2042 55.0318 43.711C54.747 43.2178 54.5967 42.6585 54.5959 42.089V39.944C54.5967 39.3745 54.747 38.8152 55.0318 38.322C55.3165 37.8288 55.7257 37.419 56.2185 37.1335L57.7228 36.2618C58.2667 35.9445 58.6633 35.4251 58.826 34.8168C58.9888 34.2085 58.9045 33.5605 58.5917 33.014L56.7217 29.7717C56.5661 29.5018 56.3583 29.2655 56.1104 29.0767C55.8626 28.8878 55.5796 28.7501 55.278 28.6717C54.6672 28.5087 54.0168 28.5937 53.4685 28.9082L51.989 29.7635C51.4944 30.052 50.9321 30.2039 50.3596 30.2039C49.787 30.2039 49.2248 30.052 48.7302 29.7635L46.8712 28.6635C46.3822 28.377 45.9765 27.9678 45.6944 27.4763C45.4122 26.9847 45.2633 26.428 45.2625 25.8612V24.1397C45.261 23.5083 45.0092 22.9033 44.5622 22.4574C44.1153 22.0114 43.5096 21.761 42.8782 21.761H39.152C38.5208 21.761 37.9155 22.0115 37.469 22.4576C37.0224 22.9036 36.7712 23.5086 36.7705 24.1397V25.8612C36.7699 26.4284 36.6209 26.9855 36.3382 27.4771C36.0554 27.9687 35.6489 28.3778 35.159 28.6635L33.3 29.7635C32.8046 30.0511 32.2421 30.2026 31.6693 30.2026C31.0965 30.2026 30.5338 30.0511 30.0385 29.7635L28.5645 28.911C28.2937 28.7535 27.9943 28.6513 27.6837 28.6102C27.3731 28.5692 27.0574 28.5901 26.755 28.6717C26.453 28.7501 26.1696 28.8877 25.9213 29.0765C25.673 29.2653 25.4647 29.5017 25.3085 29.7717L23.4385 33.014C23.1259 33.5609 23.0421 34.2091 23.2054 34.8175C23.3687 35.4258 23.7659 35.945 24.3103 36.2618L25.8118 37.1335C26.3045 37.419 26.7137 37.8288 26.9984 38.322C27.2832 38.8152 27.4335 39.3745 27.4342 39.944V42.089C27.4335 42.6585 27.2832 43.2178 26.9984 43.711C26.7137 44.2042 26.3045 44.614 25.8118 44.8995L24.3075 45.7712C23.7636 46.0885 23.367 46.6079 23.2043 47.2162C23.0415 47.8245 23.1257 48.4724 23.4385 49.019L25.3085 52.2613C25.4647 52.5313 25.673 52.7676 25.9213 52.9565C26.1696 53.1453 26.453 53.2829 26.755 53.3612C27.0571 53.4447 27.3729 53.4668 27.6837 53.4262C27.9945 53.3856 28.294 53.2831 28.5645 53.1247L30.0412 52.2695C30.5309 51.9823 31.0878 51.8296 31.6555 51.8268ZM41.0522 49.8715C38.7003 49.8686 36.4454 48.933 34.7823 47.2699C33.1192 45.6068 32.1837 43.352 32.1808 41C32.1837 38.648 33.1192 36.3932 34.7823 34.7301C36.4454 33.067 38.7003 32.1314 41.0522 32.1285C43.4047 32.1306 45.6602 33.066 47.3239 34.7292C48.9876 36.3923 49.9235 38.6476 49.9265 41C49.9235 43.3525 48.9876 45.6077 47.3239 47.2708C45.6602 48.934 43.4047 49.8694 41.0522 49.8715ZM41.0522 34.8702C39.4272 34.8724 37.8694 35.519 36.7203 36.668C35.5712 37.8171 34.9247 39.375 34.9225 41C34.9247 42.625 35.5712 44.1829 36.7203 45.332C37.8694 46.481 39.4272 47.1276 41.0522 47.1298C42.678 47.1283 44.2368 46.4822 45.387 45.3331C46.5371 44.1841 47.1845 42.6258 47.1874 41C47.1845 39.3742 46.5371 37.816 45.387 36.6669C44.2368 35.5178 42.678 34.8717 41.0522 34.8702Z" fill="black" stroke="white" stroke-width="0.8" mask="url(#path-2-inside-1_149_22)"/>
</g>
<defs>
<clipPath id="clip0_149_22">
<rect width="44" height="44" fill="white" transform="translate(19 19)"/>
</clipPath>
</defs>
</svg>
