<svg width="25" height="25" viewBox="0 0 25 25" fill="none" xmlns="http://www.w3.org/2000/svg">
<path d="M17.4303 7.68092C17.3854 7.68092 17.341 7.68975 17.2996 7.70691C17.2582 7.72407 17.2205 7.74922 17.1888 7.78093L11.2375 13.7329L7.81251 10.3079C7.74727 10.2462 7.66087 10.2118 7.57106 10.2118C7.48126 10.2118 7.39486 10.2462 7.32962 10.3079L5.94804 11.6895C5.91633 11.7212 5.89118 11.7588 5.87402 11.8003C5.85686 11.8417 5.84802 11.8861 5.84802 11.9309C5.84802 11.9758 5.85686 12.0202 5.87402 12.0616C5.89118 12.103 5.91633 12.1407 5.94804 12.1724L10.9961 17.2197C11.0278 17.2515 11.0654 17.2766 11.1068 17.2938C11.1483 17.3109 11.1927 17.3198 11.2375 17.3198C11.2824 17.3198 11.3268 17.3109 11.3682 17.2938C11.4096 17.2766 11.4473 17.2515 11.479 17.2197L19.0526 9.6454C19.1167 9.58125 19.1527 9.49429 19.1527 9.40362C19.1527 9.31295 19.1167 9.22599 19.0526 9.16185L17.6711 7.78027C17.6394 7.74856 17.6017 7.72341 17.5603 7.70625C17.5189 7.68909 17.4745 7.68027 17.4296 7.68027L17.4303 7.68092ZM11.2375 16.4967L6.6737 11.9322L7.57172 11.0342L10.9967 14.4599C11.0284 14.4916 11.0661 14.5167 11.1075 14.5339C11.1489 14.5511 11.1933 14.5599 11.2382 14.5599C11.283 14.5599 11.3274 14.5511 11.3688 14.5339C11.4103 14.5167 11.4479 14.4916 11.4796 14.4599L17.4303 8.50856L18.3283 9.40658L11.2375 16.4967Z" fill="black"/>
<path d="M12.4993 3.19211C10.6584 3.19224 8.85893 3.73825 7.32834 4.76109C5.79775 5.78393 4.60484 7.23767 3.90045 8.93848C3.19605 10.6393 3.01182 12.5108 3.37104 14.3163C3.73026 16.1218 4.61681 17.7802 5.91856 19.0819C7.22032 20.3836 8.87883 21.27 10.6844 21.6291C12.4899 21.9882 14.3614 21.8038 16.0621 21.0993C17.7629 20.3948 19.2165 19.2018 20.2393 17.6711C21.262 16.1405 21.8079 14.3409 21.8079 12.5C21.8079 11.2776 21.5671 10.0672 21.0993 8.93787C20.6315 7.80854 19.9458 6.78242 19.0815 5.91809C18.2171 5.05377 17.1909 4.36817 16.0615 3.90044C14.9322 3.43271 13.7217 3.19202 12.4993 3.19211ZM12.4993 21.125C10.7935 21.125 9.12593 20.6192 7.70756 19.6714C6.28918 18.7237 5.18369 17.3767 4.53089 15.8006C3.87808 14.2246 3.70728 12.4904 4.04008 10.8173C4.37287 9.14426 5.19433 7.60743 6.40055 6.40121C7.60678 5.19498 9.14361 4.37353 10.8167 4.04073C12.4898 3.70793 14.224 3.87874 15.8 4.53154C17.376 5.18435 18.723 6.28984 19.6708 7.70821C20.6185 9.12658 21.1243 10.7941 21.1243 12.5C21.1243 13.6327 20.9013 14.7542 20.4678 15.8006C20.0344 16.8471 19.3991 17.7979 18.5981 18.5988C17.7972 19.3997 16.8464 20.035 15.8 20.4685C14.7536 20.9019 13.632 21.125 12.4993 21.125Z" fill="black"/>
<path d="M24.6134 13.5959C24.8643 13.2857 25.0012 12.8988 25.0012 12.4998C25.0012 12.1008 24.8643 11.714 24.6134 11.4038L24.0535 10.7044C23.9461 10.5703 23.8726 10.4122 23.8392 10.2437C23.8057 10.0751 23.8134 9.90099 23.8614 9.736L24.1114 8.88074C24.2213 8.49706 24.1978 8.08748 24.0449 7.71885C23.8919 7.35023 23.6185 7.04434 23.2693 6.85113L22.4871 6.42153C22.3363 6.339 22.2075 6.22136 22.1118 6.07856C22.0161 5.93576 21.9561 5.772 21.9371 5.60113L21.8397 4.71166C21.798 4.31448 21.6212 3.94366 21.3388 3.66127C21.0564 3.37887 20.6856 3.20203 20.2884 3.16034L19.3989 3.06298C19.2281 3.04405 19.0644 2.98424 18.9216 2.88862C18.7788 2.79299 18.6611 2.66437 18.5785 2.51363L18.1489 1.73074C17.9585 1.37909 17.653 1.10361 17.2836 0.950522C16.9141 0.797434 16.5033 0.776047 16.12 0.88995L15.2647 1.13995C15.0997 1.18785 14.9256 1.19541 14.7571 1.16197C14.5885 1.12854 14.4305 1.0551 14.2963 0.947845L13.5956 0.387319C13.2854 0.136514 12.8985 -0.000305176 12.4996 -0.000305176C12.1006 -0.000305176 11.7138 0.136514 11.4035 0.387319L10.7042 0.947187C10.5699 1.05435 10.4119 1.12773 10.2434 1.16115C10.0749 1.19458 9.90078 1.18708 9.73576 1.13929L8.8805 0.889293C8.49688 0.77904 8.08721 0.802163 7.71843 0.954884C7.34966 1.1076 7.04359 1.38089 6.85024 1.73008L6.41997 2.51298C6.33743 2.66359 6.21986 2.79213 6.07719 2.88775C5.93451 2.98336 5.77092 3.04323 5.60024 3.06232L4.71076 3.16034C4.3138 3.20215 3.94321 3.37896 3.66097 3.6612C3.37872 3.94345 3.20191 4.31404 3.16011 4.711L3.06274 5.60113C3.04381 5.77195 2.984 5.9357 2.88838 6.0785C2.79275 6.22131 2.66413 6.33897 2.5134 6.42153L1.7305 6.85113C1.37921 7.04157 1.10401 7.34691 0.950947 7.71602C0.797889 8.08513 0.776271 8.49562 0.889711 8.87877L1.13971 9.73403C1.18761 9.89903 1.19517 10.0731 1.16173 10.2417C1.1283 10.4102 1.05487 10.5682 0.947606 10.7025L0.38708 11.4038C0.13616 11.714 -0.000732422 12.1008 -0.000732422 12.4998C-0.000732422 12.8988 0.13616 13.2857 0.38708 13.5959L0.946948 14.2952C1.05435 14.4294 1.12788 14.5874 1.16132 14.756C1.19476 14.9245 1.18712 15.0986 1.13905 15.2636L0.889053 16.1189C0.779197 16.5023 0.802449 16.9115 0.955017 17.28C1.10759 17.6485 1.38047 17.9544 1.72918 18.1478L2.51142 18.5775C2.66224 18.66 2.79097 18.7776 2.8867 18.9204C2.98244 19.0632 3.04237 19.227 3.06142 19.3978L3.15879 20.2873C3.20059 20.6843 3.3774 21.0549 3.65965 21.3371C3.9419 21.6194 4.31248 21.7962 4.70945 21.838L5.60024 21.9367C5.77106 21.9556 5.9348 22.0154 6.0776 22.111C6.22041 22.2066 6.33807 22.3353 6.42063 22.486L6.85024 23.2689C7.04064 23.6205 7.34618 23.896 7.7156 24.0491C8.08503 24.2022 8.49586 24.2236 8.87919 24.1097L9.73445 23.8597C9.89946 23.8119 10.0735 23.8044 10.242 23.8378C10.4106 23.8713 10.5686 23.9446 10.7029 24.0518L11.4022 24.6117C11.7124 24.8626 12.0993 24.9995 12.4983 24.9995C12.8972 24.9995 13.2841 24.8626 13.5943 24.6117L14.2937 24.0518C14.4278 23.9444 14.5859 23.8709 14.7544 23.8375C14.923 23.8041 15.0971 23.8117 15.2621 23.8597L16.1173 24.1097C16.5007 24.2236 16.9115 24.2022 17.2809 24.0491C17.6504 23.896 17.9559 23.6205 18.1463 23.2689L18.5759 22.4867C18.6584 22.3358 18.7761 22.2071 18.9189 22.1114C19.0617 22.0156 19.2254 21.9557 19.3963 21.9367L20.2858 21.8393C20.6827 21.7975 21.0533 21.6207 21.3356 21.3384C21.6178 21.0562 21.7946 20.6856 21.8364 20.2886L21.9338 19.3992C21.9527 19.2283 22.0125 19.0646 22.1082 18.9218C22.2038 18.779 22.3324 18.6613 22.4831 18.5788L23.266 18.1492C23.6176 17.9587 23.893 17.6531 24.0461 17.2837C24.1991 16.9143 24.2206 16.5035 24.1068 16.1202L23.8568 15.2649C23.8089 15.0999 23.8014 14.9258 23.8348 14.7573C23.8682 14.5888 23.9417 14.4308 24.0489 14.2965L24.6134 13.5959ZM23.52 13.8676C23.3442 14.0875 23.2238 14.3465 23.1691 14.6226C23.1144 14.8988 23.1269 15.1841 23.2055 15.4544L23.4562 16.3097C23.5254 16.5435 23.5123 16.7941 23.4188 17.0194C23.3254 17.2446 23.1574 17.431 22.943 17.5472L22.1601 17.9768C21.9122 18.1123 21.7008 18.3057 21.5437 18.5405C21.3867 18.7753 21.2887 19.0446 21.2581 19.3255L21.1608 20.2149C21.135 20.4571 21.0271 20.683 20.8549 20.8552C20.6828 21.0273 20.4568 21.1353 20.2147 21.161L19.3239 21.259C19.0438 21.2901 18.7753 21.3881 18.5411 21.5449C18.3069 21.7017 18.114 21.9125 17.9785 22.1597L17.5489 22.9426C17.4326 23.1569 17.2463 23.3248 17.021 23.4182C16.7958 23.5117 16.5453 23.5249 16.3114 23.4557L15.4562 23.2057C15.1858 23.127 14.9005 23.1145 14.6243 23.1692C14.3481 23.2239 14.0892 23.3443 13.8693 23.5202L13.166 24.0794C12.9767 24.2327 12.7405 24.3164 12.4969 24.3164C12.2534 24.3164 12.0172 24.2327 11.8279 24.0794L11.1285 23.5196C10.9086 23.3438 10.6496 23.2234 10.3735 23.1687C10.0973 23.114 9.81202 23.1264 9.54169 23.2051L8.68642 23.4551C8.45257 23.5241 8.20212 23.5108 7.97689 23.4174C7.75167 23.324 7.5653 23.1562 7.44892 22.9419L7.01932 22.159C6.88388 21.9119 6.69089 21.7011 6.4567 21.5445C6.2225 21.3878 5.95399 21.2899 5.67392 21.259L4.78445 21.161C4.54234 21.1353 4.31637 21.0273 4.14422 20.8552C3.97206 20.683 3.86412 20.4571 3.8384 20.2149L3.74103 19.3248C3.70998 19.0447 3.61193 18.7762 3.45515 18.542C3.29838 18.3078 3.0875 18.1149 2.84037 17.9794L2.05747 17.5498C1.84467 17.4319 1.67809 17.2454 1.58489 17.0206C1.4917 16.7959 1.4774 16.5462 1.54432 16.3123L1.79432 15.4571C1.87301 15.1867 1.88552 14.9014 1.83079 14.6252C1.77605 14.3491 1.65569 14.0901 1.47984 13.8702L0.919975 13.1669C0.766794 12.9776 0.683224 12.7414 0.683224 12.4978C0.683224 12.2543 0.766794 12.0181 0.919975 11.8288L1.47984 11.1294C1.65564 10.9095 1.77597 10.6505 1.8307 10.3744C1.88543 10.0982 1.87295 9.81292 1.79432 9.54258L1.54432 8.68732C1.47504 8.45348 1.48821 8.20293 1.58163 7.97765C1.67505 7.75236 1.84305 7.56602 2.05747 7.44982L2.84037 7.02021C3.08758 6.88486 3.29851 6.6919 3.45529 6.4577C3.61208 6.2235 3.71009 5.95495 3.74103 5.67482L3.8384 4.78535C3.86431 4.54316 3.9725 4.31718 4.14491 4.14513C4.31732 3.97308 4.54352 3.86536 4.78576 3.83995L5.67524 3.74258C5.95552 3.71157 6.22419 3.61346 6.45851 3.45656C6.69282 3.29967 6.88586 3.08861 7.02129 2.84127L7.4509 2.05837C7.56874 1.8458 7.75502 1.67934 7.97945 1.58606C8.20389 1.49277 8.45328 1.47815 8.68708 1.54456L9.54234 1.79456C9.81267 1.8733 10.098 1.88584 10.3742 1.83111C10.6504 1.77637 10.9093 1.65597 11.1292 1.48008L11.8285 0.919556C12.0179 0.766376 12.2541 0.682805 12.4976 0.682805C12.7412 0.682805 12.9773 0.766376 13.1667 0.919556L13.866 1.47942C14.086 1.65512 14.345 1.7754 14.6211 1.83012C14.8973 1.88485 15.1825 1.87243 15.4529 1.7939L16.3081 1.5439C16.542 1.47487 16.7924 1.48817 17.0177 1.58156C17.2429 1.67496 17.4293 1.8428 17.5456 2.05706L17.9752 2.83995C18.1107 3.08703 18.3037 3.29784 18.5379 3.4545C18.7721 3.61117 19.0406 3.70908 19.3206 3.73995L20.2101 3.83732C20.4533 3.86213 20.6806 3.96991 20.8537 4.14256C21.0269 4.3152 21.1353 4.54218 21.1608 4.78535L21.2581 5.67482C21.2892 5.95492 21.3872 6.22342 21.544 6.45761C21.7008 6.69179 21.9117 6.88477 22.1588 7.02021L22.9417 7.44982C23.1545 7.56773 23.3211 7.75426 23.4143 7.979C23.5075 8.20373 23.5218 8.45341 23.4548 8.68732L23.2048 9.54258C23.1261 9.81291 23.1136 10.0982 23.1684 10.3744C23.2231 10.6506 23.3435 10.9095 23.5193 11.1294L24.0792 11.8288C24.2324 12.0181 24.3159 12.2543 24.3159 12.4978C24.3159 12.7414 24.2324 12.9776 24.0792 13.1669L23.52 13.8676Z" fill="black"/>
</svg>
